<mxfile host="app.diagrams.net" agent="Mozilla/5.0 (Windows NT 10.0; Win64; x64) AppleWebKit/537.36 (KHTML, like Gecko) Chrome/131.0.0.0 Safari/537.36" version="25.0.1" pages="7">
  <diagram id="bxJBYAqZWWPVyma3wsWA" name="ERD - Database">
    <mxGraphModel grid="1" page="1" gridSize="10" guides="1" tooltips="1" connect="1" arrows="1" fold="1" pageScale="1" pageWidth="1100" pageHeight="850" math="0" shadow="0">
      <root>
        <mxCell id="0" />
        <mxCell id="1" parent="0" />
        <mxCell id="S5i4kl0iqig1sJOkP_Ft-1" value="user" style="shape=table;startSize=30;container=1;collapsible=1;childLayout=tableLayout;fixedRows=1;rowLines=0;fontStyle=1;align=center;resizeLast=1;" vertex="1" parent="1">
          <mxGeometry x="40" y="160" width="320" height="270" as="geometry" />
        </mxCell>
        <mxCell id="S5i4kl0iqig1sJOkP_Ft-2" value="" style="shape=tableRow;horizontal=0;startSize=0;swimlaneHead=0;swimlaneBody=0;fillColor=none;collapsible=0;dropTarget=0;points=[[0,0.5],[1,0.5]];portConstraint=eastwest;top=0;left=0;right=0;bottom=1;" vertex="1" parent="S5i4kl0iqig1sJOkP_Ft-1">
          <mxGeometry y="30" width="320" height="30" as="geometry" />
        </mxCell>
        <mxCell id="S5i4kl0iqig1sJOkP_Ft-3" value="PK" style="shape=partialRectangle;connectable=0;fillColor=none;top=0;left=0;bottom=0;right=0;fontStyle=1;overflow=hidden;" vertex="1" parent="S5i4kl0iqig1sJOkP_Ft-2">
          <mxGeometry width="30" height="30" as="geometry">
            <mxRectangle width="30" height="30" as="alternateBounds" />
          </mxGeometry>
        </mxCell>
        <mxCell id="S5i4kl0iqig1sJOkP_Ft-4" value="user_id - serial - NOT NULL" style="shape=partialRectangle;connectable=0;fillColor=none;top=0;left=0;bottom=0;right=0;align=left;spacingLeft=6;fontStyle=5;overflow=hidden;" vertex="1" parent="S5i4kl0iqig1sJOkP_Ft-2">
          <mxGeometry x="30" width="290" height="30" as="geometry">
            <mxRectangle width="290" height="30" as="alternateBounds" />
          </mxGeometry>
        </mxCell>
        <mxCell id="S5i4kl0iqig1sJOkP_Ft-5" value="" style="shape=tableRow;horizontal=0;startSize=0;swimlaneHead=0;swimlaneBody=0;fillColor=none;collapsible=0;dropTarget=0;points=[[0,0.5],[1,0.5]];portConstraint=eastwest;top=0;left=0;right=0;bottom=0;" vertex="1" parent="S5i4kl0iqig1sJOkP_Ft-1">
          <mxGeometry y="60" width="320" height="30" as="geometry" />
        </mxCell>
        <mxCell id="S5i4kl0iqig1sJOkP_Ft-6" value="" style="shape=partialRectangle;connectable=0;fillColor=none;top=0;left=0;bottom=0;right=0;editable=1;overflow=hidden;" vertex="1" parent="S5i4kl0iqig1sJOkP_Ft-5">
          <mxGeometry width="30" height="30" as="geometry">
            <mxRectangle width="30" height="30" as="alternateBounds" />
          </mxGeometry>
        </mxCell>
        <mxCell id="S5i4kl0iqig1sJOkP_Ft-7" value="username - varchar(50) UNIQUE - NOT NULL" style="shape=partialRectangle;connectable=0;fillColor=none;top=0;left=0;bottom=0;right=0;align=left;spacingLeft=6;overflow=hidden;" vertex="1" parent="S5i4kl0iqig1sJOkP_Ft-5">
          <mxGeometry x="30" width="290" height="30" as="geometry">
            <mxRectangle width="290" height="30" as="alternateBounds" />
          </mxGeometry>
        </mxCell>
        <mxCell id="S5i4kl0iqig1sJOkP_Ft-8" value="" style="shape=tableRow;horizontal=0;startSize=0;swimlaneHead=0;swimlaneBody=0;fillColor=none;collapsible=0;dropTarget=0;points=[[0,0.5],[1,0.5]];portConstraint=eastwest;top=0;left=0;right=0;bottom=0;" vertex="1" parent="S5i4kl0iqig1sJOkP_Ft-1">
          <mxGeometry y="90" width="320" height="30" as="geometry" />
        </mxCell>
        <mxCell id="S5i4kl0iqig1sJOkP_Ft-9" value="" style="shape=partialRectangle;connectable=0;fillColor=none;top=0;left=0;bottom=0;right=0;editable=1;overflow=hidden;" vertex="1" parent="S5i4kl0iqig1sJOkP_Ft-8">
          <mxGeometry width="30" height="30" as="geometry">
            <mxRectangle width="30" height="30" as="alternateBounds" />
          </mxGeometry>
        </mxCell>
        <mxCell id="S5i4kl0iqig1sJOkP_Ft-10" value="password_hash - varchar(200) NOT NULL" style="shape=partialRectangle;connectable=0;fillColor=none;top=0;left=0;bottom=0;right=0;align=left;spacingLeft=6;overflow=hidden;" vertex="1" parent="S5i4kl0iqig1sJOkP_Ft-8">
          <mxGeometry x="30" width="290" height="30" as="geometry">
            <mxRectangle width="290" height="30" as="alternateBounds" />
          </mxGeometry>
        </mxCell>
        <mxCell id="S5i4kl0iqig1sJOkP_Ft-11" value="" style="shape=tableRow;horizontal=0;startSize=0;swimlaneHead=0;swimlaneBody=0;fillColor=none;collapsible=0;dropTarget=0;points=[[0,0.5],[1,0.5]];portConstraint=eastwest;top=0;left=0;right=0;bottom=0;" vertex="1" parent="S5i4kl0iqig1sJOkP_Ft-1">
          <mxGeometry y="120" width="320" height="30" as="geometry" />
        </mxCell>
        <mxCell id="S5i4kl0iqig1sJOkP_Ft-12" value="" style="shape=partialRectangle;connectable=0;fillColor=none;top=0;left=0;bottom=0;right=0;editable=1;overflow=hidden;" vertex="1" parent="S5i4kl0iqig1sJOkP_Ft-11">
          <mxGeometry width="30" height="30" as="geometry">
            <mxRectangle width="30" height="30" as="alternateBounds" />
          </mxGeometry>
        </mxCell>
        <mxCell id="S5i4kl0iqig1sJOkP_Ft-13" value="role - varchar(20)" style="shape=partialRectangle;connectable=0;fillColor=none;top=0;left=0;bottom=0;right=0;align=left;spacingLeft=6;overflow=hidden;" vertex="1" parent="S5i4kl0iqig1sJOkP_Ft-11">
          <mxGeometry x="30" width="290" height="30" as="geometry">
            <mxRectangle width="290" height="30" as="alternateBounds" />
          </mxGeometry>
        </mxCell>
        <mxCell id="S5i4kl0iqig1sJOkP_Ft-14" value="" style="shape=tableRow;horizontal=0;startSize=0;swimlaneHead=0;swimlaneBody=0;fillColor=none;collapsible=0;dropTarget=0;points=[[0,0.5],[1,0.5]];portConstraint=eastwest;top=0;left=0;right=0;bottom=0;" vertex="1" parent="S5i4kl0iqig1sJOkP_Ft-1">
          <mxGeometry y="150" width="320" height="30" as="geometry" />
        </mxCell>
        <mxCell id="S5i4kl0iqig1sJOkP_Ft-15" value="" style="shape=partialRectangle;connectable=0;fillColor=none;top=0;left=0;bottom=0;right=0;editable=1;overflow=hidden;" vertex="1" parent="S5i4kl0iqig1sJOkP_Ft-14">
          <mxGeometry width="30" height="30" as="geometry">
            <mxRectangle width="30" height="30" as="alternateBounds" />
          </mxGeometry>
        </mxCell>
        <mxCell id="S5i4kl0iqig1sJOkP_Ft-16" value="" style="shape=partialRectangle;connectable=0;fillColor=none;top=0;left=0;bottom=0;right=0;align=left;spacingLeft=6;overflow=hidden;" vertex="1" parent="S5i4kl0iqig1sJOkP_Ft-14">
          <mxGeometry x="30" width="290" height="30" as="geometry">
            <mxRectangle width="290" height="30" as="alternateBounds" />
          </mxGeometry>
        </mxCell>
        <mxCell id="S5i4kl0iqig1sJOkP_Ft-17" value="" style="shape=tableRow;horizontal=0;startSize=0;swimlaneHead=0;swimlaneBody=0;fillColor=none;collapsible=0;dropTarget=0;points=[[0,0.5],[1,0.5]];portConstraint=eastwest;top=0;left=0;right=0;bottom=0;" vertex="1" parent="S5i4kl0iqig1sJOkP_Ft-1">
          <mxGeometry y="180" width="320" height="30" as="geometry" />
        </mxCell>
        <mxCell id="S5i4kl0iqig1sJOkP_Ft-18" value="" style="shape=partialRectangle;connectable=0;fillColor=none;top=0;left=0;bottom=0;right=0;editable=1;overflow=hidden;" vertex="1" parent="S5i4kl0iqig1sJOkP_Ft-17">
          <mxGeometry width="30" height="30" as="geometry">
            <mxRectangle width="30" height="30" as="alternateBounds" />
          </mxGeometry>
        </mxCell>
        <mxCell id="S5i4kl0iqig1sJOkP_Ft-19" value="" style="shape=partialRectangle;connectable=0;fillColor=none;top=0;left=0;bottom=0;right=0;align=left;spacingLeft=6;overflow=hidden;" vertex="1" parent="S5i4kl0iqig1sJOkP_Ft-17">
          <mxGeometry x="30" width="290" height="30" as="geometry">
            <mxRectangle width="290" height="30" as="alternateBounds" />
          </mxGeometry>
        </mxCell>
        <mxCell id="S5i4kl0iqig1sJOkP_Ft-20" value="" style="shape=tableRow;horizontal=0;startSize=0;swimlaneHead=0;swimlaneBody=0;fillColor=none;collapsible=0;dropTarget=0;points=[[0,0.5],[1,0.5]];portConstraint=eastwest;top=0;left=0;right=0;bottom=0;" vertex="1" parent="S5i4kl0iqig1sJOkP_Ft-1">
          <mxGeometry y="210" width="320" height="30" as="geometry" />
        </mxCell>
        <mxCell id="S5i4kl0iqig1sJOkP_Ft-21" value="" style="shape=partialRectangle;connectable=0;fillColor=none;top=0;left=0;bottom=0;right=0;editable=1;overflow=hidden;" vertex="1" parent="S5i4kl0iqig1sJOkP_Ft-20">
          <mxGeometry width="30" height="30" as="geometry">
            <mxRectangle width="30" height="30" as="alternateBounds" />
          </mxGeometry>
        </mxCell>
        <mxCell id="S5i4kl0iqig1sJOkP_Ft-22" value="" style="shape=partialRectangle;connectable=0;fillColor=none;top=0;left=0;bottom=0;right=0;align=left;spacingLeft=6;overflow=hidden;" vertex="1" parent="S5i4kl0iqig1sJOkP_Ft-20">
          <mxGeometry x="30" width="290" height="30" as="geometry">
            <mxRectangle width="290" height="30" as="alternateBounds" />
          </mxGeometry>
        </mxCell>
        <mxCell id="S5i4kl0iqig1sJOkP_Ft-23" value="" style="shape=tableRow;horizontal=0;startSize=0;swimlaneHead=0;swimlaneBody=0;fillColor=none;collapsible=0;dropTarget=0;points=[[0,0.5],[1,0.5]];portConstraint=eastwest;top=0;left=0;right=0;bottom=0;" vertex="1" parent="S5i4kl0iqig1sJOkP_Ft-1">
          <mxGeometry y="240" width="320" height="30" as="geometry" />
        </mxCell>
        <mxCell id="S5i4kl0iqig1sJOkP_Ft-24" value="" style="shape=partialRectangle;connectable=0;fillColor=none;top=0;left=0;bottom=0;right=0;editable=1;overflow=hidden;" vertex="1" parent="S5i4kl0iqig1sJOkP_Ft-23">
          <mxGeometry width="30" height="30" as="geometry">
            <mxRectangle width="30" height="30" as="alternateBounds" />
          </mxGeometry>
        </mxCell>
        <mxCell id="S5i4kl0iqig1sJOkP_Ft-25" value="" style="shape=partialRectangle;connectable=0;fillColor=none;top=0;left=0;bottom=0;right=0;align=left;spacingLeft=6;overflow=hidden;" vertex="1" parent="S5i4kl0iqig1sJOkP_Ft-23">
          <mxGeometry x="30" width="290" height="30" as="geometry">
            <mxRectangle width="290" height="30" as="alternateBounds" />
          </mxGeometry>
        </mxCell>
        <mxCell id="S5i4kl0iqig1sJOkP_Ft-26" value="cards" style="shape=table;startSize=30;container=1;collapsible=1;childLayout=tableLayout;fixedRows=1;rowLines=0;fontStyle=1;align=center;resizeLast=1;html=1;" vertex="1" parent="1">
          <mxGeometry x="440" y="390" width="280" height="170" as="geometry" />
        </mxCell>
        <mxCell id="S5i4kl0iqig1sJOkP_Ft-27" value="" style="shape=tableRow;horizontal=0;startSize=0;swimlaneHead=0;swimlaneBody=0;fillColor=none;collapsible=0;dropTarget=0;points=[[0,0.5],[1,0.5]];portConstraint=eastwest;top=0;left=0;right=0;bottom=1;" vertex="1" parent="S5i4kl0iqig1sJOkP_Ft-26">
          <mxGeometry y="30" width="280" height="30" as="geometry" />
        </mxCell>
        <mxCell id="S5i4kl0iqig1sJOkP_Ft-28" value="PK" style="shape=partialRectangle;connectable=0;fillColor=none;top=0;left=0;bottom=0;right=0;fontStyle=1;overflow=hidden;whiteSpace=wrap;html=1;" vertex="1" parent="S5i4kl0iqig1sJOkP_Ft-27">
          <mxGeometry width="30" height="30" as="geometry">
            <mxRectangle width="30" height="30" as="alternateBounds" />
          </mxGeometry>
        </mxCell>
        <mxCell id="S5i4kl0iqig1sJOkP_Ft-29" value="card_id - serial - NOT NULL" style="shape=partialRectangle;connectable=0;fillColor=none;top=0;left=0;bottom=0;right=0;align=left;spacingLeft=6;fontStyle=5;overflow=hidden;whiteSpace=wrap;html=1;" vertex="1" parent="S5i4kl0iqig1sJOkP_Ft-27">
          <mxGeometry x="30" width="250" height="30" as="geometry">
            <mxRectangle width="250" height="30" as="alternateBounds" />
          </mxGeometry>
        </mxCell>
        <mxCell id="S5i4kl0iqig1sJOkP_Ft-30" value="" style="shape=tableRow;horizontal=0;startSize=0;swimlaneHead=0;swimlaneBody=0;fillColor=none;collapsible=0;dropTarget=0;points=[[0,0.5],[1,0.5]];portConstraint=eastwest;top=0;left=0;right=0;bottom=0;" vertex="1" parent="S5i4kl0iqig1sJOkP_Ft-26">
          <mxGeometry y="60" width="280" height="20" as="geometry" />
        </mxCell>
        <mxCell id="S5i4kl0iqig1sJOkP_Ft-31" value="" style="shape=partialRectangle;connectable=0;fillColor=none;top=0;left=0;bottom=0;right=0;editable=1;overflow=hidden;whiteSpace=wrap;html=1;" vertex="1" parent="S5i4kl0iqig1sJOkP_Ft-30">
          <mxGeometry width="30" height="20" as="geometry">
            <mxRectangle width="30" height="20" as="alternateBounds" />
          </mxGeometry>
        </mxCell>
        <mxCell id="S5i4kl0iqig1sJOkP_Ft-32" value="card name" style="shape=partialRectangle;connectable=0;fillColor=none;top=0;left=0;bottom=0;right=0;align=left;spacingLeft=6;overflow=hidden;whiteSpace=wrap;html=1;" vertex="1" parent="S5i4kl0iqig1sJOkP_Ft-30">
          <mxGeometry x="30" width="250" height="20" as="geometry">
            <mxRectangle width="250" height="20" as="alternateBounds" />
          </mxGeometry>
        </mxCell>
        <mxCell id="S5i4kl0iqig1sJOkP_Ft-33" value="" style="shape=tableRow;horizontal=0;startSize=0;swimlaneHead=0;swimlaneBody=0;fillColor=none;collapsible=0;dropTarget=0;points=[[0,0.5],[1,0.5]];portConstraint=eastwest;top=0;left=0;right=0;bottom=0;" vertex="1" parent="S5i4kl0iqig1sJOkP_Ft-26">
          <mxGeometry y="80" width="280" height="30" as="geometry" />
        </mxCell>
        <mxCell id="S5i4kl0iqig1sJOkP_Ft-34" value="" style="shape=partialRectangle;connectable=0;fillColor=none;top=0;left=0;bottom=0;right=0;editable=1;overflow=hidden;whiteSpace=wrap;html=1;" vertex="1" parent="S5i4kl0iqig1sJOkP_Ft-33">
          <mxGeometry width="30" height="30" as="geometry">
            <mxRectangle width="30" height="30" as="alternateBounds" />
          </mxGeometry>
        </mxCell>
        <mxCell id="S5i4kl0iqig1sJOkP_Ft-35" value="card description" style="shape=partialRectangle;connectable=0;fillColor=none;top=0;left=0;bottom=0;right=0;align=left;spacingLeft=6;overflow=hidden;whiteSpace=wrap;html=1;" vertex="1" parent="S5i4kl0iqig1sJOkP_Ft-33">
          <mxGeometry x="30" width="250" height="30" as="geometry">
            <mxRectangle width="250" height="30" as="alternateBounds" />
          </mxGeometry>
        </mxCell>
        <mxCell id="S5i4kl0iqig1sJOkP_Ft-36" value="" style="shape=tableRow;horizontal=0;startSize=0;swimlaneHead=0;swimlaneBody=0;fillColor=none;collapsible=0;dropTarget=0;points=[[0,0.5],[1,0.5]];portConstraint=eastwest;top=0;left=0;right=0;bottom=0;" vertex="1" parent="S5i4kl0iqig1sJOkP_Ft-26">
          <mxGeometry y="110" width="280" height="30" as="geometry" />
        </mxCell>
        <mxCell id="S5i4kl0iqig1sJOkP_Ft-37" value="" style="shape=partialRectangle;connectable=0;fillColor=none;top=0;left=0;bottom=0;right=0;editable=1;overflow=hidden;whiteSpace=wrap;html=1;" vertex="1" parent="S5i4kl0iqig1sJOkP_Ft-36">
          <mxGeometry width="30" height="30" as="geometry">
            <mxRectangle width="30" height="30" as="alternateBounds" />
          </mxGeometry>
        </mxCell>
        <mxCell id="S5i4kl0iqig1sJOkP_Ft-38" value="card stats (multiple properties)" style="shape=partialRectangle;connectable=0;fillColor=none;top=0;left=0;bottom=0;right=0;align=left;spacingLeft=6;overflow=hidden;whiteSpace=wrap;html=1;" vertex="1" parent="S5i4kl0iqig1sJOkP_Ft-36">
          <mxGeometry x="30" width="250" height="30" as="geometry">
            <mxRectangle width="250" height="30" as="alternateBounds" />
          </mxGeometry>
        </mxCell>
        <mxCell id="S5i4kl0iqig1sJOkP_Ft-39" style="shape=tableRow;horizontal=0;startSize=0;swimlaneHead=0;swimlaneBody=0;fillColor=none;collapsible=0;dropTarget=0;points=[[0,0.5],[1,0.5]];portConstraint=eastwest;top=0;left=0;right=0;bottom=0;" vertex="1" parent="S5i4kl0iqig1sJOkP_Ft-26">
          <mxGeometry y="140" width="280" height="30" as="geometry" />
        </mxCell>
        <mxCell id="S5i4kl0iqig1sJOkP_Ft-40" style="shape=partialRectangle;connectable=0;fillColor=none;top=0;left=0;bottom=0;right=0;editable=1;overflow=hidden;whiteSpace=wrap;html=1;" vertex="1" parent="S5i4kl0iqig1sJOkP_Ft-39">
          <mxGeometry width="30" height="30" as="geometry">
            <mxRectangle width="30" height="30" as="alternateBounds" />
          </mxGeometry>
        </mxCell>
        <mxCell id="S5i4kl0iqig1sJOkP_Ft-41" value="card image" style="shape=partialRectangle;connectable=0;fillColor=none;top=0;left=0;bottom=0;right=0;align=left;spacingLeft=6;overflow=hidden;whiteSpace=wrap;html=1;" vertex="1" parent="S5i4kl0iqig1sJOkP_Ft-39">
          <mxGeometry x="30" width="250" height="30" as="geometry">
            <mxRectangle width="250" height="30" as="alternateBounds" />
          </mxGeometry>
        </mxCell>
        <mxCell id="S5i4kl0iqig1sJOkP_Ft-42" value="collections" style="shape=table;startSize=30;container=1;collapsible=1;childLayout=tableLayout;fixedRows=1;rowLines=0;fontStyle=1;align=center;resizeLast=1;html=1;" vertex="1" parent="1">
          <mxGeometry x="440" y="160" width="280" height="120" as="geometry" />
        </mxCell>
        <mxCell id="S5i4kl0iqig1sJOkP_Ft-43" value="" style="shape=tableRow;horizontal=0;startSize=0;swimlaneHead=0;swimlaneBody=0;fillColor=none;collapsible=0;dropTarget=0;points=[[0,0.5],[1,0.5]];portConstraint=eastwest;top=0;left=0;right=0;bottom=1;" vertex="1" parent="S5i4kl0iqig1sJOkP_Ft-42">
          <mxGeometry y="30" width="280" height="30" as="geometry" />
        </mxCell>
        <mxCell id="S5i4kl0iqig1sJOkP_Ft-44" value="PK" style="shape=partialRectangle;connectable=0;fillColor=none;top=0;left=0;bottom=0;right=0;fontStyle=1;overflow=hidden;whiteSpace=wrap;html=1;" vertex="1" parent="S5i4kl0iqig1sJOkP_Ft-43">
          <mxGeometry width="30" height="30" as="geometry">
            <mxRectangle width="30" height="30" as="alternateBounds" />
          </mxGeometry>
        </mxCell>
        <mxCell id="S5i4kl0iqig1sJOkP_Ft-45" value="collection_id" style="shape=partialRectangle;connectable=0;fillColor=none;top=0;left=0;bottom=0;right=0;align=left;spacingLeft=6;fontStyle=5;overflow=hidden;whiteSpace=wrap;html=1;" vertex="1" parent="S5i4kl0iqig1sJOkP_Ft-43">
          <mxGeometry x="30" width="250" height="30" as="geometry">
            <mxRectangle width="250" height="30" as="alternateBounds" />
          </mxGeometry>
        </mxCell>
        <mxCell id="S5i4kl0iqig1sJOkP_Ft-46" value="" style="shape=tableRow;horizontal=0;startSize=0;swimlaneHead=0;swimlaneBody=0;fillColor=none;collapsible=0;dropTarget=0;points=[[0,0.5],[1,0.5]];portConstraint=eastwest;top=0;left=0;right=0;bottom=0;" vertex="1" parent="S5i4kl0iqig1sJOkP_Ft-42">
          <mxGeometry y="60" width="280" height="30" as="geometry" />
        </mxCell>
        <mxCell id="S5i4kl0iqig1sJOkP_Ft-47" value="" style="shape=partialRectangle;connectable=0;fillColor=none;top=0;left=0;bottom=0;right=0;editable=1;overflow=hidden;whiteSpace=wrap;html=1;" vertex="1" parent="S5i4kl0iqig1sJOkP_Ft-46">
          <mxGeometry width="30" height="30" as="geometry">
            <mxRectangle width="30" height="30" as="alternateBounds" />
          </mxGeometry>
        </mxCell>
        <mxCell id="S5i4kl0iqig1sJOkP_Ft-48" value="collection name&lt;span style=&quot;white-space: pre;&quot;&gt;&#x9;&lt;/span&gt;" style="shape=partialRectangle;connectable=0;fillColor=none;top=0;left=0;bottom=0;right=0;align=left;spacingLeft=6;overflow=hidden;whiteSpace=wrap;html=1;" vertex="1" parent="S5i4kl0iqig1sJOkP_Ft-46">
          <mxGeometry x="30" width="250" height="30" as="geometry">
            <mxRectangle width="250" height="30" as="alternateBounds" />
          </mxGeometry>
        </mxCell>
        <mxCell id="S5i4kl0iqig1sJOkP_Ft-49" value="" style="shape=tableRow;horizontal=0;startSize=0;swimlaneHead=0;swimlaneBody=0;fillColor=none;collapsible=0;dropTarget=0;points=[[0,0.5],[1,0.5]];portConstraint=eastwest;top=0;left=0;right=0;bottom=0;" vertex="1" parent="S5i4kl0iqig1sJOkP_Ft-42">
          <mxGeometry y="90" width="280" height="30" as="geometry" />
        </mxCell>
        <mxCell id="S5i4kl0iqig1sJOkP_Ft-50" value="FK" style="shape=partialRectangle;connectable=0;fillColor=none;top=0;left=0;bottom=0;right=0;editable=1;overflow=hidden;whiteSpace=wrap;html=1;" vertex="1" parent="S5i4kl0iqig1sJOkP_Ft-49">
          <mxGeometry width="30" height="30" as="geometry">
            <mxRectangle width="30" height="30" as="alternateBounds" />
          </mxGeometry>
        </mxCell>
        <mxCell id="S5i4kl0iqig1sJOkP_Ft-51" value="user_id" style="shape=partialRectangle;connectable=0;fillColor=none;top=0;left=0;bottom=0;right=0;align=left;spacingLeft=6;overflow=hidden;whiteSpace=wrap;html=1;" vertex="1" parent="S5i4kl0iqig1sJOkP_Ft-49">
          <mxGeometry x="30" width="250" height="30" as="geometry">
            <mxRectangle width="250" height="30" as="alternateBounds" />
          </mxGeometry>
        </mxCell>
        <mxCell id="S5i4kl0iqig1sJOkP_Ft-52" value="collections_cards" style="shape=table;startSize=30;container=1;collapsible=1;childLayout=tableLayout;fixedRows=1;rowLines=0;fontStyle=1;align=center;resizeLast=1;html=1;" vertex="1" parent="1">
          <mxGeometry x="860" y="220" width="270" height="80" as="geometry" />
        </mxCell>
        <mxCell id="S5i4kl0iqig1sJOkP_Ft-53" value="" style="shape=tableRow;horizontal=0;startSize=0;swimlaneHead=0;swimlaneBody=0;fillColor=none;collapsible=0;dropTarget=0;points=[[0,0.5],[1,0.5]];portConstraint=eastwest;top=0;left=0;right=0;bottom=1;" vertex="1" parent="S5i4kl0iqig1sJOkP_Ft-52">
          <mxGeometry y="30" width="270" height="20" as="geometry" />
        </mxCell>
        <mxCell id="S5i4kl0iqig1sJOkP_Ft-54" value="PK,&amp;nbsp; FK1" style="shape=partialRectangle;connectable=0;fillColor=none;top=0;left=0;bottom=0;right=0;fontStyle=1;overflow=hidden;whiteSpace=wrap;html=1;" vertex="1" parent="S5i4kl0iqig1sJOkP_Ft-53">
          <mxGeometry width="79" height="20" as="geometry">
            <mxRectangle width="79" height="20" as="alternateBounds" />
          </mxGeometry>
        </mxCell>
        <mxCell id="S5i4kl0iqig1sJOkP_Ft-55" value="collection_id" style="shape=partialRectangle;connectable=0;fillColor=none;top=0;left=0;bottom=0;right=0;align=left;spacingLeft=6;fontStyle=5;overflow=hidden;whiteSpace=wrap;html=1;" vertex="1" parent="S5i4kl0iqig1sJOkP_Ft-53">
          <mxGeometry x="79" width="191" height="20" as="geometry">
            <mxRectangle width="191" height="20" as="alternateBounds" />
          </mxGeometry>
        </mxCell>
        <mxCell id="S5i4kl0iqig1sJOkP_Ft-56" value="" style="shape=tableRow;horizontal=0;startSize=0;swimlaneHead=0;swimlaneBody=0;fillColor=none;collapsible=0;dropTarget=0;points=[[0,0.5],[1,0.5]];portConstraint=eastwest;top=0;left=0;right=0;bottom=0;" vertex="1" parent="S5i4kl0iqig1sJOkP_Ft-52">
          <mxGeometry y="50" width="270" height="30" as="geometry" />
        </mxCell>
        <mxCell id="S5i4kl0iqig1sJOkP_Ft-57" value="PK, FK2" style="shape=partialRectangle;connectable=0;fillColor=none;top=0;left=0;bottom=0;right=0;editable=1;overflow=hidden;whiteSpace=wrap;html=1;fontStyle=1" vertex="1" parent="S5i4kl0iqig1sJOkP_Ft-56">
          <mxGeometry width="79" height="30" as="geometry">
            <mxRectangle width="79" height="30" as="alternateBounds" />
          </mxGeometry>
        </mxCell>
        <mxCell id="S5i4kl0iqig1sJOkP_Ft-58" value="card_id" style="shape=partialRectangle;connectable=0;fillColor=none;top=0;left=0;bottom=0;right=0;align=left;spacingLeft=6;overflow=hidden;whiteSpace=wrap;html=1;fontStyle=1" vertex="1" parent="S5i4kl0iqig1sJOkP_Ft-56">
          <mxGeometry x="79" width="191" height="30" as="geometry">
            <mxRectangle width="191" height="30" as="alternateBounds" />
          </mxGeometry>
        </mxCell>
        <mxCell id="S5i4kl0iqig1sJOkP_Ft-59" value="" style="edgeStyle=entityRelationEdgeStyle;fontSize=12;html=1;endArrow=ERoneToMany;rounded=0;exitX=1;exitY=0.5;exitDx=0;exitDy=0;entryX=0;entryY=0.5;entryDx=0;entryDy=0;" edge="1" parent="1" source="S5i4kl0iqig1sJOkP_Ft-2" target="S5i4kl0iqig1sJOkP_Ft-49">
          <mxGeometry width="100" height="100" relative="1" as="geometry">
            <mxPoint x="250" y="270" as="sourcePoint" />
            <mxPoint x="350" y="170" as="targetPoint" />
          </mxGeometry>
        </mxCell>
        <mxCell id="S5i4kl0iqig1sJOkP_Ft-60" value="" style="edgeStyle=entityRelationEdgeStyle;fontSize=12;html=1;endArrow=ERoneToMany;rounded=0;exitX=1;exitY=0.5;exitDx=0;exitDy=0;entryX=0;entryY=0.5;entryDx=0;entryDy=0;" edge="1" parent="1" source="S5i4kl0iqig1sJOkP_Ft-43" target="S5i4kl0iqig1sJOkP_Ft-53">
          <mxGeometry width="100" height="100" relative="1" as="geometry">
            <mxPoint x="740" y="330" as="sourcePoint" />
            <mxPoint x="840" y="230" as="targetPoint" />
          </mxGeometry>
        </mxCell>
        <mxCell id="S5i4kl0iqig1sJOkP_Ft-61" value="" style="edgeStyle=entityRelationEdgeStyle;fontSize=12;html=1;endArrow=ERoneToMany;rounded=0;exitX=1;exitY=0.5;exitDx=0;exitDy=0;entryX=0;entryY=0.5;entryDx=0;entryDy=0;" edge="1" parent="1" source="S5i4kl0iqig1sJOkP_Ft-27" target="S5i4kl0iqig1sJOkP_Ft-56">
          <mxGeometry width="100" height="100" relative="1" as="geometry">
            <mxPoint x="820" y="510" as="sourcePoint" />
            <mxPoint x="920" y="410" as="targetPoint" />
          </mxGeometry>
        </mxCell>
      </root>
    </mxGraphModel>
  </diagram>
  <diagram id="1hNNHXemxZD0ANTrLvL-" name="Security-ORM">
    <mxGraphModel grid="1" page="1" gridSize="10" guides="1" tooltips="1" connect="1" arrows="1" fold="1" pageScale="1" pageWidth="850" pageHeight="1100" math="0" shadow="0">
      <root>
        <mxCell id="0" />
        <mxCell id="1" parent="0" />
        <mxCell id="U_WAIAHPmic2r2tjayFJ-10" value="Authority" style="swimlane;fontStyle=0;childLayout=stackLayout;horizontal=1;startSize=26;fillColor=none;horizontalStack=0;resizeParent=1;resizeParentMax=0;resizeLast=0;collapsible=1;marginBottom=0;" vertex="1" parent="1">
          <mxGeometry x="80" y="360" width="300" height="232" as="geometry" />
        </mxCell>
        <mxCell id="U_WAIAHPmic2r2tjayFJ-11" value="private name: String" style="text;strokeColor=none;fillColor=none;align=left;verticalAlign=top;spacingLeft=4;spacingRight=4;overflow=hidden;rotatable=0;points=[[0,0.5],[1,0.5]];portConstraint=eastwest;" vertex="1" parent="U_WAIAHPmic2r2tjayFJ-10">
          <mxGeometry y="26" width="300" height="26" as="geometry" />
        </mxCell>
        <mxCell id="U_WAIAHPmic2r2tjayFJ-24" value="" style="line;strokeWidth=1;fillColor=none;align=left;verticalAlign=middle;spacingTop=-1;spacingLeft=3;spacingRight=3;rotatable=0;labelPosition=right;points=[];portConstraint=eastwest;strokeColor=inherit;" vertex="1" parent="U_WAIAHPmic2r2tjayFJ-10">
          <mxGeometry y="52" width="300" height="8" as="geometry" />
        </mxCell>
        <mxCell id="U_WAIAHPmic2r2tjayFJ-36" value="public  Authority(String name): constructor" style="text;strokeColor=none;fillColor=none;align=left;verticalAlign=top;spacingLeft=4;spacingRight=4;overflow=hidden;rotatable=0;points=[[0,0.5],[1,0.5]];portConstraint=eastwest;" vertex="1" parent="U_WAIAHPmic2r2tjayFJ-10">
          <mxGeometry y="60" width="300" height="26" as="geometry" />
        </mxCell>
        <mxCell id="U_WAIAHPmic2r2tjayFJ-38" value="" style="line;strokeWidth=1;fillColor=none;align=left;verticalAlign=middle;spacingTop=-1;spacingLeft=3;spacingRight=3;rotatable=0;labelPosition=right;points=[];portConstraint=eastwest;strokeColor=inherit;" vertex="1" parent="U_WAIAHPmic2r2tjayFJ-10">
          <mxGeometry y="86" width="300" height="8" as="geometry" />
        </mxCell>
        <mxCell id="U_WAIAHPmic2r2tjayFJ-17" value="public getName: String" style="text;strokeColor=none;fillColor=none;align=left;verticalAlign=top;spacingLeft=4;spacingRight=4;overflow=hidden;rotatable=0;points=[[0,0.5],[1,0.5]];portConstraint=eastwest;" vertex="1" parent="U_WAIAHPmic2r2tjayFJ-10">
          <mxGeometry y="94" width="300" height="26" as="geometry" />
        </mxCell>
        <mxCell id="U_WAIAHPmic2r2tjayFJ-25" value="public  setName(String): void" style="text;strokeColor=none;fillColor=none;align=left;verticalAlign=top;spacingLeft=4;spacingRight=4;overflow=hidden;rotatable=0;points=[[0,0.5],[1,0.5]];portConstraint=eastwest;" vertex="1" parent="U_WAIAHPmic2r2tjayFJ-10">
          <mxGeometry y="120" width="300" height="26" as="geometry" />
        </mxCell>
        <mxCell id="U_WAIAHPmic2r2tjayFJ-33" value="" style="line;strokeWidth=1;fillColor=none;align=left;verticalAlign=middle;spacingTop=-1;spacingLeft=3;spacingRight=3;rotatable=0;labelPosition=right;points=[];portConstraint=eastwest;strokeColor=inherit;" vertex="1" parent="U_WAIAHPmic2r2tjayFJ-10">
          <mxGeometry y="146" width="300" height="8" as="geometry" />
        </mxCell>
        <mxCell id="U_WAIAHPmic2r2tjayFJ-32" value="public  equals: boolean (@Override)" style="text;strokeColor=none;fillColor=none;align=left;verticalAlign=top;spacingLeft=4;spacingRight=4;overflow=hidden;rotatable=0;points=[[0,0.5],[1,0.5]];portConstraint=eastwest;" vertex="1" parent="U_WAIAHPmic2r2tjayFJ-10">
          <mxGeometry y="154" width="300" height="26" as="geometry" />
        </mxCell>
        <mxCell id="U_WAIAHPmic2r2tjayFJ-31" value="public  hashCode: int (@Override)" style="text;strokeColor=none;fillColor=none;align=left;verticalAlign=top;spacingLeft=4;spacingRight=4;overflow=hidden;rotatable=0;points=[[0,0.5],[1,0.5]];portConstraint=eastwest;" vertex="1" parent="U_WAIAHPmic2r2tjayFJ-10">
          <mxGeometry y="180" width="300" height="26" as="geometry" />
        </mxCell>
        <mxCell id="U_WAIAHPmic2r2tjayFJ-13" value="public  toString(): String (@Override)" style="text;strokeColor=none;fillColor=none;align=left;verticalAlign=top;spacingLeft=4;spacingRight=4;overflow=hidden;rotatable=0;points=[[0,0.5],[1,0.5]];portConstraint=eastwest;" vertex="1" parent="U_WAIAHPmic2r2tjayFJ-10">
          <mxGeometry y="206" width="300" height="26" as="geometry" />
        </mxCell>
        <mxCell id="lX5vusj-dG1wEB21UhwQ-1" value="LoginDTO" style="swimlane;fontStyle=0;childLayout=stackLayout;horizontal=1;startSize=26;fillColor=none;horizontalStack=0;resizeParent=1;resizeParentMax=0;resizeLast=0;collapsible=1;marginBottom=0;" vertex="1" parent="1">
          <mxGeometry x="1320" y="360" width="300" height="232" as="geometry" />
        </mxCell>
        <mxCell id="lX5vusj-dG1wEB21UhwQ-2" value="private username: String" style="text;strokeColor=none;fillColor=none;align=left;verticalAlign=top;spacingLeft=4;spacingRight=4;overflow=hidden;rotatable=0;points=[[0,0.5],[1,0.5]];portConstraint=eastwest;" vertex="1" parent="lX5vusj-dG1wEB21UhwQ-1">
          <mxGeometry y="26" width="300" height="26" as="geometry" />
        </mxCell>
        <mxCell id="lX5vusj-dG1wEB21UhwQ-3" value="private  password: String" style="text;strokeColor=none;fillColor=none;align=left;verticalAlign=top;spacingLeft=4;spacingRight=4;overflow=hidden;rotatable=0;points=[[0,0.5],[1,0.5]];portConstraint=eastwest;" vertex="1" parent="lX5vusj-dG1wEB21UhwQ-1">
          <mxGeometry y="52" width="300" height="26" as="geometry" />
        </mxCell>
        <mxCell id="lX5vusj-dG1wEB21UhwQ-5" value="" style="line;strokeWidth=1;fillColor=none;align=left;verticalAlign=middle;spacingTop=-1;spacingLeft=3;spacingRight=3;rotatable=0;labelPosition=right;points=[];portConstraint=eastwest;strokeColor=inherit;" vertex="1" parent="lX5vusj-dG1wEB21UhwQ-1">
          <mxGeometry y="78" width="300" height="8" as="geometry" />
        </mxCell>
        <mxCell id="lX5vusj-dG1wEB21UhwQ-8" value="" style="line;strokeWidth=1;fillColor=none;align=left;verticalAlign=middle;spacingTop=-1;spacingLeft=3;spacingRight=3;rotatable=0;labelPosition=right;points=[];portConstraint=eastwest;strokeColor=inherit;" vertex="1" parent="lX5vusj-dG1wEB21UhwQ-1">
          <mxGeometry y="86" width="300" height="8" as="geometry" />
        </mxCell>
        <mxCell id="lX5vusj-dG1wEB21UhwQ-9" value="public getUserName: String" style="text;strokeColor=none;fillColor=none;align=left;verticalAlign=top;spacingLeft=4;spacingRight=4;overflow=hidden;rotatable=0;points=[[0,0.5],[1,0.5]];portConstraint=eastwest;" vertex="1" parent="lX5vusj-dG1wEB21UhwQ-1">
          <mxGeometry y="94" width="300" height="26" as="geometry" />
        </mxCell>
        <mxCell id="lX5vusj-dG1wEB21UhwQ-10" value="public  setUserName(String): void" style="text;strokeColor=none;fillColor=none;align=left;verticalAlign=top;spacingLeft=4;spacingRight=4;overflow=hidden;rotatable=0;points=[[0,0.5],[1,0.5]];portConstraint=eastwest;" vertex="1" parent="lX5vusj-dG1wEB21UhwQ-1">
          <mxGeometry y="120" width="300" height="26" as="geometry" />
        </mxCell>
        <mxCell id="lX5vusj-dG1wEB21UhwQ-11" value="public  getPassword: String" style="text;strokeColor=none;fillColor=none;align=left;verticalAlign=top;spacingLeft=4;spacingRight=4;overflow=hidden;rotatable=0;points=[[0,0.5],[1,0.5]];portConstraint=eastwest;" vertex="1" parent="lX5vusj-dG1wEB21UhwQ-1">
          <mxGeometry y="146" width="300" height="26" as="geometry" />
        </mxCell>
        <mxCell id="lX5vusj-dG1wEB21UhwQ-12" value="public  setPassword(String): void" style="text;strokeColor=none;fillColor=none;align=left;verticalAlign=top;spacingLeft=4;spacingRight=4;overflow=hidden;rotatable=0;points=[[0,0.5],[1,0.5]];portConstraint=eastwest;" vertex="1" parent="lX5vusj-dG1wEB21UhwQ-1">
          <mxGeometry y="172" width="300" height="26" as="geometry" />
        </mxCell>
        <mxCell id="lX5vusj-dG1wEB21UhwQ-19" value="" style="line;strokeWidth=1;fillColor=none;align=left;verticalAlign=middle;spacingTop=-1;spacingLeft=3;spacingRight=3;rotatable=0;labelPosition=right;points=[];portConstraint=eastwest;strokeColor=inherit;" vertex="1" parent="lX5vusj-dG1wEB21UhwQ-1">
          <mxGeometry y="198" width="300" height="8" as="geometry" />
        </mxCell>
        <mxCell id="lX5vusj-dG1wEB21UhwQ-20" value="public  toString: String  (@Override)" style="text;strokeColor=none;fillColor=none;align=left;verticalAlign=top;spacingLeft=4;spacingRight=4;overflow=hidden;rotatable=0;points=[[0,0.5],[1,0.5]];portConstraint=eastwest;" vertex="1" parent="lX5vusj-dG1wEB21UhwQ-1">
          <mxGeometry y="206" width="300" height="26" as="geometry" />
        </mxCell>
        <mxCell id="lX5vusj-dG1wEB21UhwQ-23" value="User" style="swimlane;fontStyle=0;childLayout=stackLayout;horizontal=1;startSize=26;fillColor=none;horizontalStack=0;resizeParent=1;resizeParentMax=0;resizeLast=0;collapsible=1;marginBottom=0;" vertex="1" parent="1">
          <mxGeometry x="460" y="330" width="300" height="580" as="geometry" />
        </mxCell>
        <mxCell id="lX5vusj-dG1wEB21UhwQ-24" value="private id: int" style="text;strokeColor=none;fillColor=none;align=left;verticalAlign=top;spacingLeft=4;spacingRight=4;overflow=hidden;rotatable=0;points=[[0,0.5],[1,0.5]];portConstraint=eastwest;" vertex="1" parent="lX5vusj-dG1wEB21UhwQ-23">
          <mxGeometry y="26" width="300" height="26" as="geometry" />
        </mxCell>
        <mxCell id="lX5vusj-dG1wEB21UhwQ-58" value="private username: String" style="text;strokeColor=none;fillColor=none;align=left;verticalAlign=top;spacingLeft=4;spacingRight=4;overflow=hidden;rotatable=0;points=[[0,0.5],[1,0.5]];portConstraint=eastwest;" vertex="1" parent="lX5vusj-dG1wEB21UhwQ-23">
          <mxGeometry y="52" width="300" height="26" as="geometry" />
        </mxCell>
        <mxCell id="lX5vusj-dG1wEB21UhwQ-59" value="private password: String" style="text;strokeColor=none;fillColor=none;align=left;verticalAlign=top;spacingLeft=4;spacingRight=4;overflow=hidden;rotatable=0;points=[[0,0.5],[1,0.5]];portConstraint=eastwest;" vertex="1" parent="lX5vusj-dG1wEB21UhwQ-23">
          <mxGeometry y="78" width="300" height="26" as="geometry" />
        </mxCell>
        <mxCell id="lX5vusj-dG1wEB21UhwQ-60" value="private activated: boolean" style="text;strokeColor=none;fillColor=none;align=left;verticalAlign=top;spacingLeft=4;spacingRight=4;overflow=hidden;rotatable=0;points=[[0,0.5],[1,0.5]];portConstraint=eastwest;" vertex="1" parent="lX5vusj-dG1wEB21UhwQ-23">
          <mxGeometry y="104" width="300" height="26" as="geometry" />
        </mxCell>
        <mxCell id="lX5vusj-dG1wEB21UhwQ-61" value="private Authority: Set&lt;Authority&gt;" style="text;strokeColor=none;fillColor=none;align=left;verticalAlign=top;spacingLeft=4;spacingRight=4;overflow=hidden;rotatable=0;points=[[0,0.5],[1,0.5]];portConstraint=eastwest;" vertex="1" parent="lX5vusj-dG1wEB21UhwQ-23">
          <mxGeometry y="130" width="300" height="26" as="geometry" />
        </mxCell>
        <mxCell id="lX5vusj-dG1wEB21UhwQ-25" value="" style="line;strokeWidth=1;fillColor=none;align=left;verticalAlign=middle;spacingTop=-1;spacingLeft=3;spacingRight=3;rotatable=0;labelPosition=right;points=[];portConstraint=eastwest;strokeColor=inherit;" vertex="1" parent="lX5vusj-dG1wEB21UhwQ-23">
          <mxGeometry y="156" width="300" height="8" as="geometry" />
        </mxCell>
        <mxCell id="lX5vusj-dG1wEB21UhwQ-26" value="public  User(int id, String username, &#xa;String password, String Authorities): constructor" style="text;strokeColor=none;fillColor=none;align=left;verticalAlign=top;spacingLeft=4;spacingRight=4;overflow=hidden;rotatable=0;points=[[0,0.5],[1,0.5]];portConstraint=eastwest;" vertex="1" parent="lX5vusj-dG1wEB21UhwQ-23">
          <mxGeometry y="164" width="300" height="36" as="geometry" />
        </mxCell>
        <mxCell id="lX5vusj-dG1wEB21UhwQ-28" value="" style="line;strokeWidth=1;fillColor=none;align=left;verticalAlign=middle;spacingTop=-1;spacingLeft=3;spacingRight=3;rotatable=0;labelPosition=right;points=[];portConstraint=eastwest;strokeColor=inherit;" vertex="1" parent="lX5vusj-dG1wEB21UhwQ-23">
          <mxGeometry y="200" width="300" height="8" as="geometry" />
        </mxCell>
        <mxCell id="lX5vusj-dG1wEB21UhwQ-29" value="public getId: int" style="text;strokeColor=none;fillColor=none;align=left;verticalAlign=top;spacingLeft=4;spacingRight=4;overflow=hidden;rotatable=0;points=[[0,0.5],[1,0.5]];portConstraint=eastwest;" vertex="1" parent="lX5vusj-dG1wEB21UhwQ-23">
          <mxGeometry y="208" width="300" height="26" as="geometry" />
        </mxCell>
        <mxCell id="lX5vusj-dG1wEB21UhwQ-30" value="public  setId(int id): void" style="text;strokeColor=none;fillColor=none;align=left;verticalAlign=top;spacingLeft=4;spacingRight=4;overflow=hidden;rotatable=0;points=[[0,0.5],[1,0.5]];portConstraint=eastwest;" vertex="1" parent="lX5vusj-dG1wEB21UhwQ-23">
          <mxGeometry y="234" width="300" height="26" as="geometry" />
        </mxCell>
        <mxCell id="lX5vusj-dG1wEB21UhwQ-66" value="public getUserName: String" style="text;strokeColor=none;fillColor=none;align=left;verticalAlign=top;spacingLeft=4;spacingRight=4;overflow=hidden;rotatable=0;points=[[0,0.5],[1,0.5]];portConstraint=eastwest;" vertex="1" parent="lX5vusj-dG1wEB21UhwQ-23">
          <mxGeometry y="260" width="300" height="26" as="geometry" />
        </mxCell>
        <mxCell id="lX5vusj-dG1wEB21UhwQ-69" value="public  setUserName(String userName): void" style="text;strokeColor=none;fillColor=none;align=left;verticalAlign=top;spacingLeft=4;spacingRight=4;overflow=hidden;rotatable=0;points=[[0,0.5],[1,0.5]];portConstraint=eastwest;" vertex="1" parent="lX5vusj-dG1wEB21UhwQ-23">
          <mxGeometry y="286" width="300" height="26" as="geometry" />
        </mxCell>
        <mxCell id="lX5vusj-dG1wEB21UhwQ-68" value="public getPassword: String" style="text;strokeColor=none;fillColor=none;align=left;verticalAlign=top;spacingLeft=4;spacingRight=4;overflow=hidden;rotatable=0;points=[[0,0.5],[1,0.5]];portConstraint=eastwest;" vertex="1" parent="lX5vusj-dG1wEB21UhwQ-23">
          <mxGeometry y="312" width="300" height="26" as="geometry" />
        </mxCell>
        <mxCell id="lX5vusj-dG1wEB21UhwQ-67" value="public  setPassword(String password): void" style="text;strokeColor=none;fillColor=none;align=left;verticalAlign=top;spacingLeft=4;spacingRight=4;overflow=hidden;rotatable=0;points=[[0,0.5],[1,0.5]];portConstraint=eastwest;" vertex="1" parent="lX5vusj-dG1wEB21UhwQ-23">
          <mxGeometry y="338" width="300" height="26" as="geometry" />
        </mxCell>
        <mxCell id="lX5vusj-dG1wEB21UhwQ-62" value="public getIsActivated: boolean" style="text;strokeColor=none;fillColor=none;align=left;verticalAlign=top;spacingLeft=4;spacingRight=4;overflow=hidden;rotatable=0;points=[[0,0.5],[1,0.5]];portConstraint=eastwest;" vertex="1" parent="lX5vusj-dG1wEB21UhwQ-23">
          <mxGeometry y="364" width="300" height="26" as="geometry" />
        </mxCell>
        <mxCell id="lX5vusj-dG1wEB21UhwQ-65" value="public  setIsActivated(boolean isActivated): void" style="text;strokeColor=none;fillColor=none;align=left;verticalAlign=top;spacingLeft=4;spacingRight=4;overflow=hidden;rotatable=0;points=[[0,0.5],[1,0.5]];portConstraint=eastwest;" vertex="1" parent="lX5vusj-dG1wEB21UhwQ-23">
          <mxGeometry y="390" width="300" height="26" as="geometry" />
        </mxCell>
        <mxCell id="lX5vusj-dG1wEB21UhwQ-64" value="public getAuthorities: Set&lt;Authority&gt;" style="text;strokeColor=none;fillColor=none;align=left;verticalAlign=top;spacingLeft=4;spacingRight=4;overflow=hidden;rotatable=0;points=[[0,0.5],[1,0.5]];portConstraint=eastwest;" vertex="1" parent="lX5vusj-dG1wEB21UhwQ-23">
          <mxGeometry y="416" width="300" height="26" as="geometry" />
        </mxCell>
        <mxCell id="lX5vusj-dG1wEB21UhwQ-63" value="public  setAuthorities(Set&lt;Authority&gt; authorities): void" style="text;strokeColor=none;fillColor=none;align=left;verticalAlign=top;spacingLeft=4;spacingRight=4;overflow=hidden;rotatable=0;points=[[0,0.5],[1,0.5]];portConstraint=eastwest;" vertex="1" parent="lX5vusj-dG1wEB21UhwQ-23">
          <mxGeometry y="442" width="300" height="26" as="geometry" />
        </mxCell>
        <mxCell id="lX5vusj-dG1wEB21UhwQ-70" value="public  setAuthorities(String authorities): void" style="text;strokeColor=none;fillColor=none;align=left;verticalAlign=top;spacingLeft=4;spacingRight=4;overflow=hidden;rotatable=0;points=[[0,0.5],[1,0.5]];portConstraint=eastwest;" vertex="1" parent="lX5vusj-dG1wEB21UhwQ-23">
          <mxGeometry y="468" width="300" height="26" as="geometry" />
        </mxCell>
        <mxCell id="lX5vusj-dG1wEB21UhwQ-31" value="" style="line;strokeWidth=1;fillColor=none;align=left;verticalAlign=middle;spacingTop=-1;spacingLeft=3;spacingRight=3;rotatable=0;labelPosition=right;points=[];portConstraint=eastwest;strokeColor=inherit;" vertex="1" parent="lX5vusj-dG1wEB21UhwQ-23">
          <mxGeometry y="494" width="300" height="8" as="geometry" />
        </mxCell>
        <mxCell id="lX5vusj-dG1wEB21UhwQ-32" value="public  equals: boolean" style="text;strokeColor=none;fillColor=none;align=left;verticalAlign=top;spacingLeft=4;spacingRight=4;overflow=hidden;rotatable=0;points=[[0,0.5],[1,0.5]];portConstraint=eastwest;" vertex="1" parent="lX5vusj-dG1wEB21UhwQ-23">
          <mxGeometry y="502" width="300" height="26" as="geometry" />
        </mxCell>
        <mxCell id="lX5vusj-dG1wEB21UhwQ-33" value="public  hashCode: int" style="text;strokeColor=none;fillColor=none;align=left;verticalAlign=top;spacingLeft=4;spacingRight=4;overflow=hidden;rotatable=0;points=[[0,0.5],[1,0.5]];portConstraint=eastwest;" vertex="1" parent="lX5vusj-dG1wEB21UhwQ-23">
          <mxGeometry y="528" width="300" height="26" as="geometry" />
        </mxCell>
        <mxCell id="lX5vusj-dG1wEB21UhwQ-34" value="public  toString(): String" style="text;strokeColor=none;fillColor=none;align=left;verticalAlign=top;spacingLeft=4;spacingRight=4;overflow=hidden;rotatable=0;points=[[0,0.5],[1,0.5]];portConstraint=eastwest;" vertex="1" parent="lX5vusj-dG1wEB21UhwQ-23">
          <mxGeometry y="554" width="300" height="26" as="geometry" />
        </mxCell>
        <mxCell id="lX5vusj-dG1wEB21UhwQ-35" value="LoginResponseDTO" style="swimlane;fontStyle=0;childLayout=stackLayout;horizontal=1;startSize=26;fillColor=none;horizontalStack=0;resizeParent=1;resizeParentMax=0;resizeLast=0;collapsible=1;marginBottom=0;" vertex="1" parent="1">
          <mxGeometry x="840" y="500" width="390" height="232" as="geometry" />
        </mxCell>
        <mxCell id="lX5vusj-dG1wEB21UhwQ-36" value="private token: String" style="text;strokeColor=none;fillColor=none;align=left;verticalAlign=top;spacingLeft=4;spacingRight=4;overflow=hidden;rotatable=0;points=[[0,0.5],[1,0.5]];portConstraint=eastwest;" vertex="1" parent="lX5vusj-dG1wEB21UhwQ-35">
          <mxGeometry y="26" width="390" height="26" as="geometry" />
        </mxCell>
        <mxCell id="lX5vusj-dG1wEB21UhwQ-37" value="private user: User" style="text;strokeColor=none;fillColor=none;align=left;verticalAlign=top;spacingLeft=4;spacingRight=4;overflow=hidden;rotatable=0;points=[[0,0.5],[1,0.5]];portConstraint=eastwest;" vertex="1" parent="lX5vusj-dG1wEB21UhwQ-35">
          <mxGeometry y="52" width="390" height="26" as="geometry" />
        </mxCell>
        <mxCell id="lX5vusj-dG1wEB21UhwQ-38" value="" style="line;strokeWidth=1;fillColor=none;align=left;verticalAlign=middle;spacingTop=-1;spacingLeft=3;spacingRight=3;rotatable=0;labelPosition=right;points=[];portConstraint=eastwest;strokeColor=inherit;" vertex="1" parent="lX5vusj-dG1wEB21UhwQ-35">
          <mxGeometry y="78" width="390" height="8" as="geometry" />
        </mxCell>
        <mxCell id="lX5vusj-dG1wEB21UhwQ-45" value="public  LoginResponseDto(String token, User user): Constructor" style="text;strokeColor=none;fillColor=none;align=left;verticalAlign=top;spacingLeft=4;spacingRight=4;overflow=hidden;rotatable=0;points=[[0,0.5],[1,0.5]];portConstraint=eastwest;" vertex="1" parent="lX5vusj-dG1wEB21UhwQ-35">
          <mxGeometry y="86" width="390" height="26" as="geometry" />
        </mxCell>
        <mxCell id="lX5vusj-dG1wEB21UhwQ-39" value="" style="line;strokeWidth=1;fillColor=none;align=left;verticalAlign=middle;spacingTop=-1;spacingLeft=3;spacingRight=3;rotatable=0;labelPosition=right;points=[];portConstraint=eastwest;strokeColor=inherit;" vertex="1" parent="lX5vusj-dG1wEB21UhwQ-35">
          <mxGeometry y="112" width="390" height="8" as="geometry" />
        </mxCell>
        <mxCell id="lX5vusj-dG1wEB21UhwQ-46" value="public getToken(): String" style="text;strokeColor=none;fillColor=none;align=left;verticalAlign=top;spacingLeft=4;spacingRight=4;overflow=hidden;rotatable=0;points=[[0,0.5],[1,0.5]];portConstraint=eastwest;" vertex="1" parent="lX5vusj-dG1wEB21UhwQ-35">
          <mxGeometry y="120" width="390" height="26" as="geometry" />
        </mxCell>
        <mxCell id="lX5vusj-dG1wEB21UhwQ-40" value="public setToken(String token): void" style="text;strokeColor=none;fillColor=none;align=left;verticalAlign=top;spacingLeft=4;spacingRight=4;overflow=hidden;rotatable=0;points=[[0,0.5],[1,0.5]];portConstraint=eastwest;" vertex="1" parent="lX5vusj-dG1wEB21UhwQ-35">
          <mxGeometry y="146" width="390" height="26" as="geometry" />
        </mxCell>
        <mxCell id="lX5vusj-dG1wEB21UhwQ-41" value="public  getUser(): User" style="text;strokeColor=none;fillColor=none;align=left;verticalAlign=top;spacingLeft=4;spacingRight=4;overflow=hidden;rotatable=0;points=[[0,0.5],[1,0.5]];portConstraint=eastwest;" vertex="1" parent="lX5vusj-dG1wEB21UhwQ-35">
          <mxGeometry y="172" width="390" height="26" as="geometry" />
        </mxCell>
        <mxCell id="lX5vusj-dG1wEB21UhwQ-43" value="public  setUser(User): void" style="text;strokeColor=none;fillColor=none;align=left;verticalAlign=top;spacingLeft=4;spacingRight=4;overflow=hidden;rotatable=0;points=[[0,0.5],[1,0.5]];portConstraint=eastwest;" vertex="1" parent="lX5vusj-dG1wEB21UhwQ-35">
          <mxGeometry y="198" width="390" height="26" as="geometry" />
        </mxCell>
        <mxCell id="lX5vusj-dG1wEB21UhwQ-44" value="" style="line;strokeWidth=1;fillColor=none;align=left;verticalAlign=middle;spacingTop=-1;spacingLeft=3;spacingRight=3;rotatable=0;labelPosition=right;points=[];portConstraint=eastwest;strokeColor=inherit;" vertex="1" parent="lX5vusj-dG1wEB21UhwQ-35">
          <mxGeometry y="224" width="390" height="8" as="geometry" />
        </mxCell>
        <mxCell id="lX5vusj-dG1wEB21UhwQ-47" value="RegisterUserDto" style="swimlane;fontStyle=0;childLayout=stackLayout;horizontal=1;startSize=26;fillColor=none;horizontalStack=0;resizeParent=1;resizeParentMax=0;resizeLast=0;collapsible=1;marginBottom=0;" vertex="1" parent="1">
          <mxGeometry x="1290" y="750" width="390" height="206" as="geometry" />
        </mxCell>
        <mxCell id="lX5vusj-dG1wEB21UhwQ-48" value="private username: String (@NotEmpty)" style="text;strokeColor=none;fillColor=none;align=left;verticalAlign=top;spacingLeft=4;spacingRight=4;overflow=hidden;rotatable=0;points=[[0,0.5],[1,0.5]];portConstraint=eastwest;" vertex="1" parent="lX5vusj-dG1wEB21UhwQ-47">
          <mxGeometry y="26" width="390" height="26" as="geometry" />
        </mxCell>
        <mxCell id="lX5vusj-dG1wEB21UhwQ-49" value="private password: String (@NotEmpty)" style="text;strokeColor=none;fillColor=none;align=left;verticalAlign=top;spacingLeft=4;spacingRight=4;overflow=hidden;rotatable=0;points=[[0,0.5],[1,0.5]];portConstraint=eastwest;" vertex="1" parent="lX5vusj-dG1wEB21UhwQ-47">
          <mxGeometry y="52" width="390" height="26" as="geometry" />
        </mxCell>
        <mxCell id="lX5vusj-dG1wEB21UhwQ-50" value="" style="line;strokeWidth=1;fillColor=none;align=left;verticalAlign=middle;spacingTop=-1;spacingLeft=3;spacingRight=3;rotatable=0;labelPosition=right;points=[];portConstraint=eastwest;strokeColor=inherit;" vertex="1" parent="lX5vusj-dG1wEB21UhwQ-47">
          <mxGeometry y="78" width="390" height="8" as="geometry" />
        </mxCell>
        <mxCell id="lX5vusj-dG1wEB21UhwQ-52" value="" style="line;strokeWidth=1;fillColor=none;align=left;verticalAlign=middle;spacingTop=-1;spacingLeft=3;spacingRight=3;rotatable=0;labelPosition=right;points=[];portConstraint=eastwest;strokeColor=inherit;" vertex="1" parent="lX5vusj-dG1wEB21UhwQ-47">
          <mxGeometry y="86" width="390" height="8" as="geometry" />
        </mxCell>
        <mxCell id="lX5vusj-dG1wEB21UhwQ-53" value="public getUserName(): String" style="text;strokeColor=none;fillColor=none;align=left;verticalAlign=top;spacingLeft=4;spacingRight=4;overflow=hidden;rotatable=0;points=[[0,0.5],[1,0.5]];portConstraint=eastwest;" vertex="1" parent="lX5vusj-dG1wEB21UhwQ-47">
          <mxGeometry y="94" width="390" height="26" as="geometry" />
        </mxCell>
        <mxCell id="lX5vusj-dG1wEB21UhwQ-54" value="public setUserName(String token): void" style="text;strokeColor=none;fillColor=none;align=left;verticalAlign=top;spacingLeft=4;spacingRight=4;overflow=hidden;rotatable=0;points=[[0,0.5],[1,0.5]];portConstraint=eastwest;" vertex="1" parent="lX5vusj-dG1wEB21UhwQ-47">
          <mxGeometry y="120" width="390" height="26" as="geometry" />
        </mxCell>
        <mxCell id="lX5vusj-dG1wEB21UhwQ-55" value="public  getPassword(): String" style="text;strokeColor=none;fillColor=none;align=left;verticalAlign=top;spacingLeft=4;spacingRight=4;overflow=hidden;rotatable=0;points=[[0,0.5],[1,0.5]];portConstraint=eastwest;" vertex="1" parent="lX5vusj-dG1wEB21UhwQ-47">
          <mxGeometry y="146" width="390" height="26" as="geometry" />
        </mxCell>
        <mxCell id="lX5vusj-dG1wEB21UhwQ-56" value="public  setPassword(String): void" style="text;strokeColor=none;fillColor=none;align=left;verticalAlign=top;spacingLeft=4;spacingRight=4;overflow=hidden;rotatable=0;points=[[0,0.5],[1,0.5]];portConstraint=eastwest;" vertex="1" parent="lX5vusj-dG1wEB21UhwQ-47">
          <mxGeometry y="172" width="390" height="26" as="geometry" />
        </mxCell>
        <mxCell id="lX5vusj-dG1wEB21UhwQ-57" value="" style="line;strokeWidth=1;fillColor=none;align=left;verticalAlign=middle;spacingTop=-1;spacingLeft=3;spacingRight=3;rotatable=0;labelPosition=right;points=[];portConstraint=eastwest;strokeColor=inherit;" vertex="1" parent="lX5vusj-dG1wEB21UhwQ-47">
          <mxGeometry y="198" width="390" height="8" as="geometry" />
        </mxCell>
        <mxCell id="lX5vusj-dG1wEB21UhwQ-75" value="1" style="text;html=1;strokeColor=none;fillColor=none;align=center;verticalAlign=middle;whiteSpace=wrap;rounded=0;" vertex="1" parent="1">
          <mxGeometry x="420" y="450" width="60" height="30" as="geometry" />
        </mxCell>
        <mxCell id="lX5vusj-dG1wEB21UhwQ-76" value="*" style="text;html=1;strokeColor=none;fillColor=none;align=center;verticalAlign=middle;whiteSpace=wrap;rounded=0;" vertex="1" parent="1">
          <mxGeometry x="360" y="450" width="60" height="30" as="geometry" />
        </mxCell>
        <mxCell id="lX5vusj-dG1wEB21UhwQ-80" value="" style="endArrow=none;dashed=1;html=1;dashPattern=1 3;strokeWidth=2;rounded=0;entryX=0;entryY=-0.115;entryDx=0;entryDy=0;entryPerimeter=0;exitX=1;exitY=0.5;exitDx=0;exitDy=0;" edge="1" parent="1" source="lX5vusj-dG1wEB21UhwQ-45" target="lX5vusj-dG1wEB21UhwQ-9">
          <mxGeometry width="50" height="50" relative="1" as="geometry">
            <mxPoint x="1020" y="680" as="sourcePoint" />
            <mxPoint x="1070" y="630" as="targetPoint" />
          </mxGeometry>
        </mxCell>
        <mxCell id="lX5vusj-dG1wEB21UhwQ-81" value="" style="endArrow=none;dashed=1;html=1;dashPattern=1 3;strokeWidth=2;rounded=0;entryX=0;entryY=0.25;entryDx=0;entryDy=0;entryPerimeter=0;exitX=1;exitY=0.5;exitDx=0;exitDy=0;" edge="1" parent="1" source="lX5vusj-dG1wEB21UhwQ-45" target="lX5vusj-dG1wEB21UhwQ-50">
          <mxGeometry width="50" height="50" relative="1" as="geometry">
            <mxPoint x="1020" y="680" as="sourcePoint" />
            <mxPoint x="1070" y="630" as="targetPoint" />
          </mxGeometry>
        </mxCell>
        <mxCell id="lX5vusj-dG1wEB21UhwQ-84" value="1" style="text;html=1;strokeColor=none;fillColor=none;align=center;verticalAlign=middle;whiteSpace=wrap;rounded=0;" vertex="1" parent="1">
          <mxGeometry x="800" y="480" width="60" height="30" as="geometry" />
        </mxCell>
        <mxCell id="lX5vusj-dG1wEB21UhwQ-85" value="1" style="text;html=1;strokeColor=none;fillColor=none;align=center;verticalAlign=middle;whiteSpace=wrap;rounded=0;" vertex="1" parent="1">
          <mxGeometry x="740" y="480" width="60" height="30" as="geometry" />
        </mxCell>
        <mxCell id="lX5vusj-dG1wEB21UhwQ-87" value="" style="endArrow=classic;html=1;rounded=0;" edge="1" parent="1">
          <mxGeometry width="50" height="50" relative="1" as="geometry">
            <mxPoint x="840" y="520" as="sourcePoint" />
            <mxPoint x="760" y="520" as="targetPoint" />
          </mxGeometry>
        </mxCell>
        <mxCell id="lX5vusj-dG1wEB21UhwQ-88" value="" style="endArrow=classic;html=1;rounded=0;" edge="1" parent="1">
          <mxGeometry width="50" height="50" relative="1" as="geometry">
            <mxPoint x="458" y="475.58" as="sourcePoint" />
            <mxPoint x="378" y="475.58" as="targetPoint" />
          </mxGeometry>
        </mxCell>
      </root>
    </mxGraphModel>
  </diagram>
  <diagram id="s_kndhqBwDmR71O0RNEN" name="Project-ORM">
    <mxGraphModel grid="1" page="1" gridSize="10" guides="1" tooltips="1" connect="1" arrows="1" fold="1" pageScale="1" pageWidth="850" pageHeight="1100" math="0" shadow="0">
      <root>
        <mxCell id="0" />
        <mxCell id="1" parent="0" />
        <mxCell id="gPERwAoq3yTzWKLF0L9r-1" value="[Class]" style="swimlane;fontStyle=0;childLayout=stackLayout;horizontal=1;startSize=26;fillColor=none;horizontalStack=0;resizeParent=1;resizeParentMax=0;resizeLast=0;collapsible=1;marginBottom=0;" vertex="1" parent="1">
          <mxGeometry x="40" y="200" width="300" height="580" as="geometry" />
        </mxCell>
        <mxCell id="gPERwAoq3yTzWKLF0L9r-2" value="private id: int" style="text;strokeColor=none;fillColor=none;align=left;verticalAlign=top;spacingLeft=4;spacingRight=4;overflow=hidden;rotatable=0;points=[[0,0.5],[1,0.5]];portConstraint=eastwest;" vertex="1" parent="gPERwAoq3yTzWKLF0L9r-1">
          <mxGeometry y="26" width="300" height="26" as="geometry" />
        </mxCell>
        <mxCell id="gPERwAoq3yTzWKLF0L9r-3" value="private field: type" style="text;strokeColor=none;fillColor=none;align=left;verticalAlign=top;spacingLeft=4;spacingRight=4;overflow=hidden;rotatable=0;points=[[0,0.5],[1,0.5]];portConstraint=eastwest;" vertex="1" parent="gPERwAoq3yTzWKLF0L9r-1">
          <mxGeometry y="52" width="300" height="26" as="geometry" />
        </mxCell>
        <mxCell id="gPERwAoq3yTzWKLF0L9r-4" value="private field: type" style="text;strokeColor=none;fillColor=none;align=left;verticalAlign=top;spacingLeft=4;spacingRight=4;overflow=hidden;rotatable=0;points=[[0,0.5],[1,0.5]];portConstraint=eastwest;" vertex="1" parent="gPERwAoq3yTzWKLF0L9r-1">
          <mxGeometry y="78" width="300" height="26" as="geometry" />
        </mxCell>
        <mxCell id="gPERwAoq3yTzWKLF0L9r-5" value="private field: type" style="text;strokeColor=none;fillColor=none;align=left;verticalAlign=top;spacingLeft=4;spacingRight=4;overflow=hidden;rotatable=0;points=[[0,0.5],[1,0.5]];portConstraint=eastwest;" vertex="1" parent="gPERwAoq3yTzWKLF0L9r-1">
          <mxGeometry y="104" width="300" height="26" as="geometry" />
        </mxCell>
        <mxCell id="gPERwAoq3yTzWKLF0L9r-6" value="private field: type" style="text;strokeColor=none;fillColor=none;align=left;verticalAlign=top;spacingLeft=4;spacingRight=4;overflow=hidden;rotatable=0;points=[[0,0.5],[1,0.5]];portConstraint=eastwest;" vertex="1" parent="gPERwAoq3yTzWKLF0L9r-1">
          <mxGeometry y="130" width="300" height="26" as="geometry" />
        </mxCell>
        <mxCell id="gPERwAoq3yTzWKLF0L9r-7" value="" style="line;strokeWidth=1;fillColor=none;align=left;verticalAlign=middle;spacingTop=-1;spacingLeft=3;spacingRight=3;rotatable=0;labelPosition=right;points=[];portConstraint=eastwest;strokeColor=inherit;" vertex="1" parent="gPERwAoq3yTzWKLF0L9r-1">
          <mxGeometry y="156" width="300" height="8" as="geometry" />
        </mxCell>
        <mxCell id="gPERwAoq3yTzWKLF0L9r-8" value="public  Constructor()" style="text;strokeColor=none;fillColor=none;align=left;verticalAlign=top;spacingLeft=4;spacingRight=4;overflow=hidden;rotatable=0;points=[[0,0.5],[1,0.5]];portConstraint=eastwest;" vertex="1" parent="gPERwAoq3yTzWKLF0L9r-1">
          <mxGeometry y="164" width="300" height="36" as="geometry" />
        </mxCell>
        <mxCell id="gPERwAoq3yTzWKLF0L9r-9" value="" style="line;strokeWidth=1;fillColor=none;align=left;verticalAlign=middle;spacingTop=-1;spacingLeft=3;spacingRight=3;rotatable=0;labelPosition=right;points=[];portConstraint=eastwest;strokeColor=inherit;" vertex="1" parent="gPERwAoq3yTzWKLF0L9r-1">
          <mxGeometry y="200" width="300" height="8" as="geometry" />
        </mxCell>
        <mxCell id="gPERwAoq3yTzWKLF0L9r-10" value="public getId: int" style="text;strokeColor=none;fillColor=none;align=left;verticalAlign=top;spacingLeft=4;spacingRight=4;overflow=hidden;rotatable=0;points=[[0,0.5],[1,0.5]];portConstraint=eastwest;" vertex="1" parent="gPERwAoq3yTzWKLF0L9r-1">
          <mxGeometry y="208" width="300" height="26" as="geometry" />
        </mxCell>
        <mxCell id="gPERwAoq3yTzWKLF0L9r-11" value="public  setId(int id): void" style="text;strokeColor=none;fillColor=none;align=left;verticalAlign=top;spacingLeft=4;spacingRight=4;overflow=hidden;rotatable=0;points=[[0,0.5],[1,0.5]];portConstraint=eastwest;" vertex="1" parent="gPERwAoq3yTzWKLF0L9r-1">
          <mxGeometry y="234" width="300" height="26" as="geometry" />
        </mxCell>
        <mxCell id="gPERwAoq3yTzWKLF0L9r-12" value="public getUserName: String" style="text;strokeColor=none;fillColor=none;align=left;verticalAlign=top;spacingLeft=4;spacingRight=4;overflow=hidden;rotatable=0;points=[[0,0.5],[1,0.5]];portConstraint=eastwest;" vertex="1" parent="gPERwAoq3yTzWKLF0L9r-1">
          <mxGeometry y="260" width="300" height="26" as="geometry" />
        </mxCell>
        <mxCell id="gPERwAoq3yTzWKLF0L9r-13" value="public  setUserName(String userName): void" style="text;strokeColor=none;fillColor=none;align=left;verticalAlign=top;spacingLeft=4;spacingRight=4;overflow=hidden;rotatable=0;points=[[0,0.5],[1,0.5]];portConstraint=eastwest;" vertex="1" parent="gPERwAoq3yTzWKLF0L9r-1">
          <mxGeometry y="286" width="300" height="26" as="geometry" />
        </mxCell>
        <mxCell id="gPERwAoq3yTzWKLF0L9r-14" value="public getPassword: String" style="text;strokeColor=none;fillColor=none;align=left;verticalAlign=top;spacingLeft=4;spacingRight=4;overflow=hidden;rotatable=0;points=[[0,0.5],[1,0.5]];portConstraint=eastwest;" vertex="1" parent="gPERwAoq3yTzWKLF0L9r-1">
          <mxGeometry y="312" width="300" height="26" as="geometry" />
        </mxCell>
        <mxCell id="gPERwAoq3yTzWKLF0L9r-15" value="public  setPassword(String password): void" style="text;strokeColor=none;fillColor=none;align=left;verticalAlign=top;spacingLeft=4;spacingRight=4;overflow=hidden;rotatable=0;points=[[0,0.5],[1,0.5]];portConstraint=eastwest;" vertex="1" parent="gPERwAoq3yTzWKLF0L9r-1">
          <mxGeometry y="338" width="300" height="26" as="geometry" />
        </mxCell>
        <mxCell id="gPERwAoq3yTzWKLF0L9r-16" value="public getIsActivated: boolean" style="text;strokeColor=none;fillColor=none;align=left;verticalAlign=top;spacingLeft=4;spacingRight=4;overflow=hidden;rotatable=0;points=[[0,0.5],[1,0.5]];portConstraint=eastwest;" vertex="1" parent="gPERwAoq3yTzWKLF0L9r-1">
          <mxGeometry y="364" width="300" height="26" as="geometry" />
        </mxCell>
        <mxCell id="gPERwAoq3yTzWKLF0L9r-17" value="public  setIsActivated(boolean isActivated): void" style="text;strokeColor=none;fillColor=none;align=left;verticalAlign=top;spacingLeft=4;spacingRight=4;overflow=hidden;rotatable=0;points=[[0,0.5],[1,0.5]];portConstraint=eastwest;" vertex="1" parent="gPERwAoq3yTzWKLF0L9r-1">
          <mxGeometry y="390" width="300" height="26" as="geometry" />
        </mxCell>
        <mxCell id="gPERwAoq3yTzWKLF0L9r-18" value="public getAuthorities: Set&lt;Authority&gt;" style="text;strokeColor=none;fillColor=none;align=left;verticalAlign=top;spacingLeft=4;spacingRight=4;overflow=hidden;rotatable=0;points=[[0,0.5],[1,0.5]];portConstraint=eastwest;" vertex="1" parent="gPERwAoq3yTzWKLF0L9r-1">
          <mxGeometry y="416" width="300" height="26" as="geometry" />
        </mxCell>
        <mxCell id="gPERwAoq3yTzWKLF0L9r-19" value="public  setAuthorities(Set&lt;Authority&gt; authorities): void" style="text;strokeColor=none;fillColor=none;align=left;verticalAlign=top;spacingLeft=4;spacingRight=4;overflow=hidden;rotatable=0;points=[[0,0.5],[1,0.5]];portConstraint=eastwest;" vertex="1" parent="gPERwAoq3yTzWKLF0L9r-1">
          <mxGeometry y="442" width="300" height="26" as="geometry" />
        </mxCell>
        <mxCell id="gPERwAoq3yTzWKLF0L9r-20" value="public  setAuthorities(String authorities): void" style="text;strokeColor=none;fillColor=none;align=left;verticalAlign=top;spacingLeft=4;spacingRight=4;overflow=hidden;rotatable=0;points=[[0,0.5],[1,0.5]];portConstraint=eastwest;" vertex="1" parent="gPERwAoq3yTzWKLF0L9r-1">
          <mxGeometry y="468" width="300" height="26" as="geometry" />
        </mxCell>
        <mxCell id="gPERwAoq3yTzWKLF0L9r-21" value="" style="line;strokeWidth=1;fillColor=none;align=left;verticalAlign=middle;spacingTop=-1;spacingLeft=3;spacingRight=3;rotatable=0;labelPosition=right;points=[];portConstraint=eastwest;strokeColor=inherit;" vertex="1" parent="gPERwAoq3yTzWKLF0L9r-1">
          <mxGeometry y="494" width="300" height="8" as="geometry" />
        </mxCell>
        <mxCell id="gPERwAoq3yTzWKLF0L9r-22" value="public  equals: boolean" style="text;strokeColor=none;fillColor=none;align=left;verticalAlign=top;spacingLeft=4;spacingRight=4;overflow=hidden;rotatable=0;points=[[0,0.5],[1,0.5]];portConstraint=eastwest;" vertex="1" parent="gPERwAoq3yTzWKLF0L9r-1">
          <mxGeometry y="502" width="300" height="26" as="geometry" />
        </mxCell>
        <mxCell id="gPERwAoq3yTzWKLF0L9r-23" value="public  hashCode: int" style="text;strokeColor=none;fillColor=none;align=left;verticalAlign=top;spacingLeft=4;spacingRight=4;overflow=hidden;rotatable=0;points=[[0,0.5],[1,0.5]];portConstraint=eastwest;" vertex="1" parent="gPERwAoq3yTzWKLF0L9r-1">
          <mxGeometry y="528" width="300" height="26" as="geometry" />
        </mxCell>
        <mxCell id="gPERwAoq3yTzWKLF0L9r-24" value="public  toString(): String" style="text;strokeColor=none;fillColor=none;align=left;verticalAlign=top;spacingLeft=4;spacingRight=4;overflow=hidden;rotatable=0;points=[[0,0.5],[1,0.5]];portConstraint=eastwest;" vertex="1" parent="gPERwAoq3yTzWKLF0L9r-1">
          <mxGeometry y="554" width="300" height="26" as="geometry" />
        </mxCell>
      </root>
    </mxGraphModel>
  </diagram>
  <diagram name="Controller - Endpoint Design" id="YPRNTb6CSVa1ABUxN-kt">
    <mxGraphModel grid="1" page="1" gridSize="10" guides="1" tooltips="1" connect="1" arrows="1" fold="1" pageScale="1" pageWidth="850" pageHeight="1100" math="0" shadow="0">
      <root>
        <mxCell id="M34Np425uzmjwPf0PUc6-0" />
        <mxCell id="M34Np425uzmjwPf0PUc6-1" parent="M34Np425uzmjwPf0PUc6-0" />
        <mxCell id="M34Np425uzmjwPf0PUc6-2" value="/" style="rounded=1;whiteSpace=wrap;html=1;" vertex="1" parent="M34Np425uzmjwPf0PUc6-1">
          <mxGeometry x="340" y="200" width="120" height="60" as="geometry" />
        </mxCell>
        <mxCell id="M34Np425uzmjwPf0PUc6-3" value="&lt;b style=&quot;font-weight:normal;&quot; id=&quot;docs-internal-guid-a7416cc5-7fff-1fec-84a1-b2f62d0fceee&quot;&gt;&lt;span style=&quot;font-size: 17pt; font-family: Arial; color: rgb(0, 0, 0); background-color: transparent; font-weight: 400; font-style: normal; font-variant: normal; text-decoration: none; vertical-align: baseline;&quot;&gt;http://localhost:9000&lt;/span&gt;&lt;/b&gt;" style="text;whiteSpace=wrap;html=1;" vertex="1" parent="M34Np425uzmjwPf0PUc6-1">
          <mxGeometry x="290" y="160" width="240" height="50" as="geometry" />
        </mxCell>
        <mxCell id="M34Np425uzmjwPf0PUc6-4" value="/" style="rounded=1;whiteSpace=wrap;html=1;" vertex="1" parent="M34Np425uzmjwPf0PUc6-1">
          <mxGeometry x="180" y="310" width="120" height="60" as="geometry" />
        </mxCell>
        <mxCell id="M34Np425uzmjwPf0PUc6-5" value="/" style="rounded=1;whiteSpace=wrap;html=1;" vertex="1" parent="M34Np425uzmjwPf0PUc6-1">
          <mxGeometry x="510" y="310" width="120" height="60" as="geometry" />
        </mxCell>
        <mxCell id="M34Np425uzmjwPf0PUc6-6" value="" style="endArrow=none;html=1;rounded=0;entryX=0;entryY=0.5;entryDx=0;entryDy=0;exitX=0.5;exitY=0;exitDx=0;exitDy=0;edgeStyle=orthogonalEdgeStyle;" edge="1" parent="M34Np425uzmjwPf0PUc6-1" source="M34Np425uzmjwPf0PUc6-4" target="M34Np425uzmjwPf0PUc6-2">
          <mxGeometry width="50" height="50" relative="1" as="geometry">
            <mxPoint x="380" y="420" as="sourcePoint" />
            <mxPoint x="430" y="370" as="targetPoint" />
          </mxGeometry>
        </mxCell>
        <mxCell id="M34Np425uzmjwPf0PUc6-7" value="" style="endArrow=none;html=1;rounded=0;entryX=1;entryY=0.5;entryDx=0;entryDy=0;exitX=0.5;exitY=0;exitDx=0;exitDy=0;edgeStyle=orthogonalEdgeStyle;" edge="1" parent="M34Np425uzmjwPf0PUc6-1" source="M34Np425uzmjwPf0PUc6-5" target="M34Np425uzmjwPf0PUc6-2">
          <mxGeometry width="50" height="50" relative="1" as="geometry">
            <mxPoint x="380" y="420" as="sourcePoint" />
            <mxPoint x="430" y="370" as="targetPoint" />
          </mxGeometry>
        </mxCell>
      </root>
    </mxGraphModel>
  </diagram>
  <diagram id="fQz0CIQPZFFiguFYOBsQ" name="Authentication - Endpoint Design">
    <mxGraphModel grid="1" page="1" gridSize="10" guides="1" tooltips="1" connect="1" arrows="1" fold="1" pageScale="1" pageWidth="850" pageHeight="1100" math="0" shadow="0">
      <root>
        <mxCell id="0" />
        <mxCell id="1" parent="0" />
        <mxCell id="rowjnWSzBdLpWuWKJBkG-1" value="/" style="rounded=1;whiteSpace=wrap;html=1;" vertex="1" parent="1">
          <mxGeometry x="340" y="200" width="120" height="60" as="geometry" />
        </mxCell>
        <mxCell id="rowjnWSzBdLpWuWKJBkG-2" value="&lt;b style=&quot;font-weight:normal;&quot; id=&quot;docs-internal-guid-a7416cc5-7fff-1fec-84a1-b2f62d0fceee&quot;&gt;&lt;span style=&quot;font-size: 17pt; font-family: Arial; color: rgb(0, 0, 0); background-color: transparent; font-weight: 400; font-style: normal; font-variant: normal; text-decoration: none; vertical-align: baseline;&quot;&gt;http://localhost:8080&lt;/span&gt;&lt;/b&gt;" style="text;whiteSpace=wrap;html=1;" vertex="1" parent="1">
          <mxGeometry x="290" y="160" width="240" height="50" as="geometry" />
        </mxCell>
        <mxCell id="rowjnWSzBdLpWuWKJBkG-4" value="/login" style="rounded=1;whiteSpace=wrap;html=1;" vertex="1" parent="1">
          <mxGeometry x="180" y="310" width="120" height="60" as="geometry" />
        </mxCell>
        <mxCell id="rowjnWSzBdLpWuWKJBkG-5" value="/register" style="rounded=1;whiteSpace=wrap;html=1;" vertex="1" parent="1">
          <mxGeometry x="510" y="310" width="120" height="60" as="geometry" />
        </mxCell>
        <mxCell id="rowjnWSzBdLpWuWKJBkG-6" value="" style="endArrow=none;html=1;rounded=0;entryX=0;entryY=0.5;entryDx=0;entryDy=0;exitX=0.5;exitY=0;exitDx=0;exitDy=0;edgeStyle=orthogonalEdgeStyle;" edge="1" parent="1" source="rowjnWSzBdLpWuWKJBkG-4" target="rowjnWSzBdLpWuWKJBkG-1">
          <mxGeometry width="50" height="50" relative="1" as="geometry">
            <mxPoint x="380" y="420" as="sourcePoint" />
            <mxPoint x="430" y="370" as="targetPoint" />
          </mxGeometry>
        </mxCell>
        <mxCell id="rowjnWSzBdLpWuWKJBkG-8" value="" style="endArrow=none;html=1;rounded=0;entryX=1;entryY=0.5;entryDx=0;entryDy=0;exitX=0.5;exitY=0;exitDx=0;exitDy=0;edgeStyle=orthogonalEdgeStyle;" edge="1" parent="1" source="rowjnWSzBdLpWuWKJBkG-5" target="rowjnWSzBdLpWuWKJBkG-1">
          <mxGeometry width="50" height="50" relative="1" as="geometry">
            <mxPoint x="380" y="420" as="sourcePoint" />
            <mxPoint x="430" y="370" as="targetPoint" />
          </mxGeometry>
        </mxCell>
      </root>
    </mxGraphModel>
  </diagram>
  <diagram id="NBn0TfiwziGV2tYdnieh" name="Controller - Endpoint Details">
    <mxGraphModel grid="1" page="1" gridSize="10" guides="1" tooltips="1" connect="1" arrows="1" fold="1" pageScale="1" pageWidth="1100" pageHeight="850" math="0" shadow="0">
      <root>
        <mxCell id="0" />
        <mxCell id="1" parent="0" />
        <mxCell id="ZwSzckMdMZMdzs2X1B1r-1" value="Endpoint Design For [Project-Name]" style="shape=table;startSize=30;container=1;collapsible=0;childLayout=tableLayout;strokeColor=default;fontSize=16;" vertex="1" parent="1">
          <mxGeometry x="30" y="40" width="1000" height="400" as="geometry" />
        </mxCell>
        <mxCell id="ZwSzckMdMZMdzs2X1B1r-2" value="" style="shape=tableRow;horizontal=0;startSize=0;swimlaneHead=0;swimlaneBody=0;strokeColor=inherit;top=0;left=0;bottom=0;right=0;collapsible=0;dropTarget=0;fillColor=none;points=[[0,0.5],[1,0.5]];portConstraint=eastwest;fontSize=16;" vertex="1" parent="ZwSzckMdMZMdzs2X1B1r-1">
          <mxGeometry y="30" width="1000" height="43" as="geometry" />
        </mxCell>
        <mxCell id="ZwSzckMdMZMdzs2X1B1r-51" value="&lt;span style=&quot;color: rgb(51, 51, 51); font-size: 18px; font-weight: 700;&quot;&gt;Endpoint&lt;/span&gt;" style="shape=partialRectangle;html=1;whiteSpace=wrap;connectable=0;strokeColor=inherit;overflow=hidden;fillColor=none;top=0;left=0;bottom=0;right=0;pointerEvents=1;fontSize=16;" vertex="1" parent="ZwSzckMdMZMdzs2X1B1r-2">
          <mxGeometry width="200" height="43" as="geometry">
            <mxRectangle width="200" height="43" as="alternateBounds" />
          </mxGeometry>
        </mxCell>
        <mxCell id="ZwSzckMdMZMdzs2X1B1r-42" value="&lt;span style=&quot;color: rgb(51, 51, 51); font-size: 18px; font-weight: 700;&quot;&gt;Method&lt;/span&gt;" style="shape=partialRectangle;html=1;whiteSpace=wrap;connectable=0;strokeColor=inherit;overflow=hidden;fillColor=none;top=0;left=0;bottom=0;right=0;pointerEvents=1;fontSize=16;" vertex="1" parent="ZwSzckMdMZMdzs2X1B1r-2">
          <mxGeometry x="200" width="200" height="43" as="geometry">
            <mxRectangle width="200" height="43" as="alternateBounds" />
          </mxGeometry>
        </mxCell>
        <mxCell id="ZwSzckMdMZMdzs2X1B1r-3" value="&lt;span style=&quot;color: rgb(51, 51, 51); font-size: 18px; font-weight: 700;&quot;&gt;Description&lt;/span&gt;" style="shape=partialRectangle;html=1;whiteSpace=wrap;connectable=0;strokeColor=inherit;overflow=hidden;fillColor=none;top=0;left=0;bottom=0;right=0;pointerEvents=1;fontSize=16;" vertex="1" parent="ZwSzckMdMZMdzs2X1B1r-2">
          <mxGeometry x="400" width="200" height="43" as="geometry">
            <mxRectangle width="200" height="43" as="alternateBounds" />
          </mxGeometry>
        </mxCell>
        <mxCell id="ZwSzckMdMZMdzs2X1B1r-4" value="&lt;span style=&quot;color: rgb(51, 51, 51); font-size: 18px; font-weight: 700;&quot;&gt;Success&lt;/span&gt;" style="shape=partialRectangle;html=1;whiteSpace=wrap;connectable=0;strokeColor=inherit;overflow=hidden;fillColor=none;top=0;left=0;bottom=0;right=0;pointerEvents=1;fontSize=16;" vertex="1" parent="ZwSzckMdMZMdzs2X1B1r-2">
          <mxGeometry x="600" width="200" height="43" as="geometry">
            <mxRectangle width="200" height="43" as="alternateBounds" />
          </mxGeometry>
        </mxCell>
        <mxCell id="ZwSzckMdMZMdzs2X1B1r-5" value="&lt;span style=&quot;color: rgb(51, 51, 51); font-size: 18px; font-weight: 700;&quot;&gt;Error&lt;/span&gt;" style="shape=partialRectangle;html=1;whiteSpace=wrap;connectable=0;strokeColor=inherit;overflow=hidden;fillColor=none;top=0;left=0;bottom=0;right=0;pointerEvents=1;fontSize=16;" vertex="1" parent="ZwSzckMdMZMdzs2X1B1r-2">
          <mxGeometry x="800" width="200" height="43" as="geometry">
            <mxRectangle width="200" height="43" as="alternateBounds" />
          </mxGeometry>
        </mxCell>
        <mxCell id="ZwSzckMdMZMdzs2X1B1r-6" value="" style="shape=tableRow;horizontal=0;startSize=0;swimlaneHead=0;swimlaneBody=0;strokeColor=inherit;top=0;left=0;bottom=0;right=0;collapsible=0;dropTarget=0;fillColor=none;points=[[0,0.5],[1,0.5]];portConstraint=eastwest;fontSize=16;" vertex="1" parent="ZwSzckMdMZMdzs2X1B1r-1">
          <mxGeometry y="73" width="1000" height="44" as="geometry" />
        </mxCell>
        <mxCell id="ZwSzckMdMZMdzs2X1B1r-52" value="/register" style="shape=partialRectangle;html=1;whiteSpace=wrap;connectable=0;strokeColor=inherit;overflow=hidden;fillColor=none;top=0;left=0;bottom=0;right=0;pointerEvents=1;fontSize=16;" vertex="1" parent="ZwSzckMdMZMdzs2X1B1r-6">
          <mxGeometry width="200" height="44" as="geometry">
            <mxRectangle width="200" height="44" as="alternateBounds" />
          </mxGeometry>
        </mxCell>
        <mxCell id="ZwSzckMdMZMdzs2X1B1r-43" value="POST" style="shape=partialRectangle;html=1;whiteSpace=wrap;connectable=0;strokeColor=inherit;overflow=hidden;fillColor=none;top=0;left=0;bottom=0;right=0;pointerEvents=1;fontSize=16;" vertex="1" parent="ZwSzckMdMZMdzs2X1B1r-6">
          <mxGeometry x="200" width="200" height="44" as="geometry">
            <mxRectangle width="200" height="44" as="alternateBounds" />
          </mxGeometry>
        </mxCell>
        <mxCell id="ZwSzckMdMZMdzs2X1B1r-7" value="Creates a new User Account." style="shape=partialRectangle;html=1;whiteSpace=wrap;connectable=0;strokeColor=inherit;overflow=hidden;fillColor=none;top=0;left=0;bottom=0;right=0;pointerEvents=1;fontSize=16;" vertex="1" parent="ZwSzckMdMZMdzs2X1B1r-6">
          <mxGeometry x="400" width="200" height="44" as="geometry">
            <mxRectangle width="200" height="44" as="alternateBounds" />
          </mxGeometry>
        </mxCell>
        <mxCell id="ZwSzckMdMZMdzs2X1B1r-8" value="201 - Created" style="shape=partialRectangle;html=1;whiteSpace=wrap;connectable=0;strokeColor=inherit;overflow=hidden;fillColor=none;top=0;left=0;bottom=0;right=0;pointerEvents=1;fontSize=16;" vertex="1" parent="ZwSzckMdMZMdzs2X1B1r-6">
          <mxGeometry x="600" width="200" height="44" as="geometry">
            <mxRectangle width="200" height="44" as="alternateBounds" />
          </mxGeometry>
        </mxCell>
        <mxCell id="ZwSzckMdMZMdzs2X1B1r-9" value="400 - Bad Request" style="shape=partialRectangle;html=1;whiteSpace=wrap;connectable=0;strokeColor=inherit;overflow=hidden;fillColor=none;top=0;left=0;bottom=0;right=0;pointerEvents=1;fontSize=16;" vertex="1" parent="ZwSzckMdMZMdzs2X1B1r-6">
          <mxGeometry x="800" width="200" height="44" as="geometry">
            <mxRectangle width="200" height="44" as="alternateBounds" />
          </mxGeometry>
        </mxCell>
        <mxCell id="ZwSzckMdMZMdzs2X1B1r-21" value="" style="shape=tableRow;horizontal=0;startSize=0;swimlaneHead=0;swimlaneBody=0;strokeColor=inherit;top=0;left=0;bottom=0;right=0;collapsible=0;dropTarget=0;fillColor=none;points=[[0,0.5],[1,0.5]];portConstraint=eastwest;fontSize=16;" vertex="1" parent="ZwSzckMdMZMdzs2X1B1r-1">
          <mxGeometry y="117" width="1000" height="40" as="geometry" />
        </mxCell>
        <mxCell id="ZwSzckMdMZMdzs2X1B1r-53" value="/login" style="shape=partialRectangle;html=1;whiteSpace=wrap;connectable=0;strokeColor=inherit;overflow=hidden;fillColor=none;top=0;left=0;bottom=0;right=0;pointerEvents=1;fontSize=16;" vertex="1" parent="ZwSzckMdMZMdzs2X1B1r-21">
          <mxGeometry width="200" height="40" as="geometry">
            <mxRectangle width="200" height="40" as="alternateBounds" />
          </mxGeometry>
        </mxCell>
        <mxCell id="ZwSzckMdMZMdzs2X1B1r-44" value="POST" style="shape=partialRectangle;html=1;whiteSpace=wrap;connectable=0;strokeColor=inherit;overflow=hidden;fillColor=none;top=0;left=0;bottom=0;right=0;pointerEvents=1;fontSize=16;" vertex="1" parent="ZwSzckMdMZMdzs2X1B1r-21">
          <mxGeometry x="200" width="200" height="40" as="geometry">
            <mxRectangle width="200" height="40" as="alternateBounds" />
          </mxGeometry>
        </mxCell>
        <mxCell id="ZwSzckMdMZMdzs2X1B1r-22" value="Retrieves JWT Token" style="shape=partialRectangle;html=1;whiteSpace=wrap;connectable=0;strokeColor=inherit;overflow=hidden;fillColor=none;top=0;left=0;bottom=0;right=0;pointerEvents=1;fontSize=16;" vertex="1" parent="ZwSzckMdMZMdzs2X1B1r-21">
          <mxGeometry x="400" width="200" height="40" as="geometry">
            <mxRectangle width="200" height="40" as="alternateBounds" />
          </mxGeometry>
        </mxCell>
        <mxCell id="ZwSzckMdMZMdzs2X1B1r-23" value="200 -&amp;nbsp; OK" style="shape=partialRectangle;html=1;whiteSpace=wrap;connectable=0;strokeColor=inherit;overflow=hidden;fillColor=none;top=0;left=0;bottom=0;right=0;pointerEvents=1;fontSize=16;" vertex="1" parent="ZwSzckMdMZMdzs2X1B1r-21">
          <mxGeometry x="600" width="200" height="40" as="geometry">
            <mxRectangle width="200" height="40" as="alternateBounds" />
          </mxGeometry>
        </mxCell>
        <mxCell id="ZwSzckMdMZMdzs2X1B1r-24" value="401 - Not Authorized" style="shape=partialRectangle;html=1;whiteSpace=wrap;connectable=0;strokeColor=inherit;overflow=hidden;fillColor=none;top=0;left=0;bottom=0;right=0;pointerEvents=1;fontSize=16;" vertex="1" parent="ZwSzckMdMZMdzs2X1B1r-21">
          <mxGeometry x="800" width="200" height="40" as="geometry">
            <mxRectangle width="200" height="40" as="alternateBounds" />
          </mxGeometry>
        </mxCell>
        <mxCell id="ZwSzckMdMZMdzs2X1B1r-34" value="" style="shape=tableRow;horizontal=0;startSize=0;swimlaneHead=0;swimlaneBody=0;strokeColor=inherit;top=0;left=0;bottom=0;right=0;collapsible=0;dropTarget=0;fillColor=none;points=[[0,0.5],[1,0.5]];portConstraint=eastwest;fontSize=16;" vertex="1" parent="ZwSzckMdMZMdzs2X1B1r-1">
          <mxGeometry y="157" width="1000" height="40" as="geometry" />
        </mxCell>
        <mxCell id="ZwSzckMdMZMdzs2X1B1r-54" style="shape=partialRectangle;html=1;whiteSpace=wrap;connectable=0;strokeColor=inherit;overflow=hidden;fillColor=none;top=0;left=0;bottom=0;right=0;pointerEvents=1;fontSize=16;" vertex="1" parent="ZwSzckMdMZMdzs2X1B1r-34">
          <mxGeometry width="200" height="40" as="geometry">
            <mxRectangle width="200" height="40" as="alternateBounds" />
          </mxGeometry>
        </mxCell>
        <mxCell id="ZwSzckMdMZMdzs2X1B1r-45" style="shape=partialRectangle;html=1;whiteSpace=wrap;connectable=0;strokeColor=inherit;overflow=hidden;fillColor=none;top=0;left=0;bottom=0;right=0;pointerEvents=1;fontSize=16;" vertex="1" parent="ZwSzckMdMZMdzs2X1B1r-34">
          <mxGeometry x="200" width="200" height="40" as="geometry">
            <mxRectangle width="200" height="40" as="alternateBounds" />
          </mxGeometry>
        </mxCell>
        <mxCell id="ZwSzckMdMZMdzs2X1B1r-35" value="" style="shape=partialRectangle;html=1;whiteSpace=wrap;connectable=0;strokeColor=inherit;overflow=hidden;fillColor=none;top=0;left=0;bottom=0;right=0;pointerEvents=1;fontSize=16;" vertex="1" parent="ZwSzckMdMZMdzs2X1B1r-34">
          <mxGeometry x="400" width="200" height="40" as="geometry">
            <mxRectangle width="200" height="40" as="alternateBounds" />
          </mxGeometry>
        </mxCell>
        <mxCell id="ZwSzckMdMZMdzs2X1B1r-36" value="" style="shape=partialRectangle;html=1;whiteSpace=wrap;connectable=0;strokeColor=inherit;overflow=hidden;fillColor=none;top=0;left=0;bottom=0;right=0;pointerEvents=1;fontSize=16;" vertex="1" parent="ZwSzckMdMZMdzs2X1B1r-34">
          <mxGeometry x="600" width="200" height="40" as="geometry">
            <mxRectangle width="200" height="40" as="alternateBounds" />
          </mxGeometry>
        </mxCell>
        <mxCell id="ZwSzckMdMZMdzs2X1B1r-37" value="" style="shape=partialRectangle;html=1;whiteSpace=wrap;connectable=0;strokeColor=inherit;overflow=hidden;fillColor=none;top=0;left=0;bottom=0;right=0;pointerEvents=1;fontSize=16;" vertex="1" parent="ZwSzckMdMZMdzs2X1B1r-34">
          <mxGeometry x="800" width="200" height="40" as="geometry">
            <mxRectangle width="200" height="40" as="alternateBounds" />
          </mxGeometry>
        </mxCell>
        <mxCell id="ZwSzckMdMZMdzs2X1B1r-30" value="" style="shape=tableRow;horizontal=0;startSize=0;swimlaneHead=0;swimlaneBody=0;strokeColor=inherit;top=0;left=0;bottom=0;right=0;collapsible=0;dropTarget=0;fillColor=none;points=[[0,0.5],[1,0.5]];portConstraint=eastwest;fontSize=16;" vertex="1" parent="ZwSzckMdMZMdzs2X1B1r-1">
          <mxGeometry y="197" width="1000" height="40" as="geometry" />
        </mxCell>
        <mxCell id="ZwSzckMdMZMdzs2X1B1r-55" style="shape=partialRectangle;html=1;whiteSpace=wrap;connectable=0;strokeColor=inherit;overflow=hidden;fillColor=none;top=0;left=0;bottom=0;right=0;pointerEvents=1;fontSize=16;" vertex="1" parent="ZwSzckMdMZMdzs2X1B1r-30">
          <mxGeometry width="200" height="40" as="geometry">
            <mxRectangle width="200" height="40" as="alternateBounds" />
          </mxGeometry>
        </mxCell>
        <mxCell id="ZwSzckMdMZMdzs2X1B1r-46" style="shape=partialRectangle;html=1;whiteSpace=wrap;connectable=0;strokeColor=inherit;overflow=hidden;fillColor=none;top=0;left=0;bottom=0;right=0;pointerEvents=1;fontSize=16;" vertex="1" parent="ZwSzckMdMZMdzs2X1B1r-30">
          <mxGeometry x="200" width="200" height="40" as="geometry">
            <mxRectangle width="200" height="40" as="alternateBounds" />
          </mxGeometry>
        </mxCell>
        <mxCell id="ZwSzckMdMZMdzs2X1B1r-31" value="" style="shape=partialRectangle;html=1;whiteSpace=wrap;connectable=0;strokeColor=inherit;overflow=hidden;fillColor=none;top=0;left=0;bottom=0;right=0;pointerEvents=1;fontSize=16;" vertex="1" parent="ZwSzckMdMZMdzs2X1B1r-30">
          <mxGeometry x="400" width="200" height="40" as="geometry">
            <mxRectangle width="200" height="40" as="alternateBounds" />
          </mxGeometry>
        </mxCell>
        <mxCell id="ZwSzckMdMZMdzs2X1B1r-32" value="" style="shape=partialRectangle;html=1;whiteSpace=wrap;connectable=0;strokeColor=inherit;overflow=hidden;fillColor=none;top=0;left=0;bottom=0;right=0;pointerEvents=1;fontSize=16;" vertex="1" parent="ZwSzckMdMZMdzs2X1B1r-30">
          <mxGeometry x="600" width="200" height="40" as="geometry">
            <mxRectangle width="200" height="40" as="alternateBounds" />
          </mxGeometry>
        </mxCell>
        <mxCell id="ZwSzckMdMZMdzs2X1B1r-33" value="" style="shape=partialRectangle;html=1;whiteSpace=wrap;connectable=0;strokeColor=inherit;overflow=hidden;fillColor=none;top=0;left=0;bottom=0;right=0;pointerEvents=1;fontSize=16;" vertex="1" parent="ZwSzckMdMZMdzs2X1B1r-30">
          <mxGeometry x="800" width="200" height="40" as="geometry">
            <mxRectangle width="200" height="40" as="alternateBounds" />
          </mxGeometry>
        </mxCell>
        <mxCell id="ZwSzckMdMZMdzs2X1B1r-38" value="" style="shape=tableRow;horizontal=0;startSize=0;swimlaneHead=0;swimlaneBody=0;strokeColor=inherit;top=0;left=0;bottom=0;right=0;collapsible=0;dropTarget=0;fillColor=none;points=[[0,0.5],[1,0.5]];portConstraint=eastwest;fontSize=16;" vertex="1" parent="ZwSzckMdMZMdzs2X1B1r-1">
          <mxGeometry y="237" width="1000" height="40" as="geometry" />
        </mxCell>
        <mxCell id="ZwSzckMdMZMdzs2X1B1r-56" style="shape=partialRectangle;html=1;whiteSpace=wrap;connectable=0;strokeColor=inherit;overflow=hidden;fillColor=none;top=0;left=0;bottom=0;right=0;pointerEvents=1;fontSize=16;" vertex="1" parent="ZwSzckMdMZMdzs2X1B1r-38">
          <mxGeometry width="200" height="40" as="geometry">
            <mxRectangle width="200" height="40" as="alternateBounds" />
          </mxGeometry>
        </mxCell>
        <mxCell id="ZwSzckMdMZMdzs2X1B1r-47" style="shape=partialRectangle;html=1;whiteSpace=wrap;connectable=0;strokeColor=inherit;overflow=hidden;fillColor=none;top=0;left=0;bottom=0;right=0;pointerEvents=1;fontSize=16;" vertex="1" parent="ZwSzckMdMZMdzs2X1B1r-38">
          <mxGeometry x="200" width="200" height="40" as="geometry">
            <mxRectangle width="200" height="40" as="alternateBounds" />
          </mxGeometry>
        </mxCell>
        <mxCell id="ZwSzckMdMZMdzs2X1B1r-39" value="" style="shape=partialRectangle;html=1;whiteSpace=wrap;connectable=0;strokeColor=inherit;overflow=hidden;fillColor=none;top=0;left=0;bottom=0;right=0;pointerEvents=1;fontSize=16;" vertex="1" parent="ZwSzckMdMZMdzs2X1B1r-38">
          <mxGeometry x="400" width="200" height="40" as="geometry">
            <mxRectangle width="200" height="40" as="alternateBounds" />
          </mxGeometry>
        </mxCell>
        <mxCell id="ZwSzckMdMZMdzs2X1B1r-40" value="" style="shape=partialRectangle;html=1;whiteSpace=wrap;connectable=0;strokeColor=inherit;overflow=hidden;fillColor=none;top=0;left=0;bottom=0;right=0;pointerEvents=1;fontSize=16;" vertex="1" parent="ZwSzckMdMZMdzs2X1B1r-38">
          <mxGeometry x="600" width="200" height="40" as="geometry">
            <mxRectangle width="200" height="40" as="alternateBounds" />
          </mxGeometry>
        </mxCell>
        <mxCell id="ZwSzckMdMZMdzs2X1B1r-41" value="" style="shape=partialRectangle;html=1;whiteSpace=wrap;connectable=0;strokeColor=inherit;overflow=hidden;fillColor=none;top=0;left=0;bottom=0;right=0;pointerEvents=1;fontSize=16;" vertex="1" parent="ZwSzckMdMZMdzs2X1B1r-38">
          <mxGeometry x="800" width="200" height="40" as="geometry">
            <mxRectangle width="200" height="40" as="alternateBounds" />
          </mxGeometry>
        </mxCell>
        <mxCell id="ZwSzckMdMZMdzs2X1B1r-17" value="" style="shape=tableRow;horizontal=0;startSize=0;swimlaneHead=0;swimlaneBody=0;strokeColor=inherit;top=0;left=0;bottom=0;right=0;collapsible=0;dropTarget=0;fillColor=none;points=[[0,0.5],[1,0.5]];portConstraint=eastwest;fontSize=16;" vertex="1" parent="ZwSzckMdMZMdzs2X1B1r-1">
          <mxGeometry y="277" width="1000" height="40" as="geometry" />
        </mxCell>
        <mxCell id="ZwSzckMdMZMdzs2X1B1r-57" style="shape=partialRectangle;html=1;whiteSpace=wrap;connectable=0;strokeColor=inherit;overflow=hidden;fillColor=none;top=0;left=0;bottom=0;right=0;pointerEvents=1;fontSize=16;" vertex="1" parent="ZwSzckMdMZMdzs2X1B1r-17">
          <mxGeometry width="200" height="40" as="geometry">
            <mxRectangle width="200" height="40" as="alternateBounds" />
          </mxGeometry>
        </mxCell>
        <mxCell id="ZwSzckMdMZMdzs2X1B1r-48" style="shape=partialRectangle;html=1;whiteSpace=wrap;connectable=0;strokeColor=inherit;overflow=hidden;fillColor=none;top=0;left=0;bottom=0;right=0;pointerEvents=1;fontSize=16;" vertex="1" parent="ZwSzckMdMZMdzs2X1B1r-17">
          <mxGeometry x="200" width="200" height="40" as="geometry">
            <mxRectangle width="200" height="40" as="alternateBounds" />
          </mxGeometry>
        </mxCell>
        <mxCell id="ZwSzckMdMZMdzs2X1B1r-18" value="" style="shape=partialRectangle;html=1;whiteSpace=wrap;connectable=0;strokeColor=inherit;overflow=hidden;fillColor=none;top=0;left=0;bottom=0;right=0;pointerEvents=1;fontSize=16;" vertex="1" parent="ZwSzckMdMZMdzs2X1B1r-17">
          <mxGeometry x="400" width="200" height="40" as="geometry">
            <mxRectangle width="200" height="40" as="alternateBounds" />
          </mxGeometry>
        </mxCell>
        <mxCell id="ZwSzckMdMZMdzs2X1B1r-19" value="" style="shape=partialRectangle;html=1;whiteSpace=wrap;connectable=0;strokeColor=inherit;overflow=hidden;fillColor=none;top=0;left=0;bottom=0;right=0;pointerEvents=1;fontSize=16;" vertex="1" parent="ZwSzckMdMZMdzs2X1B1r-17">
          <mxGeometry x="600" width="200" height="40" as="geometry">
            <mxRectangle width="200" height="40" as="alternateBounds" />
          </mxGeometry>
        </mxCell>
        <mxCell id="ZwSzckMdMZMdzs2X1B1r-20" value="" style="shape=partialRectangle;html=1;whiteSpace=wrap;connectable=0;strokeColor=inherit;overflow=hidden;fillColor=none;top=0;left=0;bottom=0;right=0;pointerEvents=1;fontSize=16;" vertex="1" parent="ZwSzckMdMZMdzs2X1B1r-17">
          <mxGeometry x="800" width="200" height="40" as="geometry">
            <mxRectangle width="200" height="40" as="alternateBounds" />
          </mxGeometry>
        </mxCell>
        <mxCell id="ZwSzckMdMZMdzs2X1B1r-25" value="" style="shape=tableRow;horizontal=0;startSize=0;swimlaneHead=0;swimlaneBody=0;strokeColor=inherit;top=0;left=0;bottom=0;right=0;collapsible=0;dropTarget=0;fillColor=none;points=[[0,0.5],[1,0.5]];portConstraint=eastwest;fontSize=16;" vertex="1" parent="ZwSzckMdMZMdzs2X1B1r-1">
          <mxGeometry y="317" width="1000" height="40" as="geometry" />
        </mxCell>
        <mxCell id="ZwSzckMdMZMdzs2X1B1r-58" style="shape=partialRectangle;html=1;whiteSpace=wrap;connectable=0;strokeColor=inherit;overflow=hidden;fillColor=none;top=0;left=0;bottom=0;right=0;pointerEvents=1;fontSize=16;" vertex="1" parent="ZwSzckMdMZMdzs2X1B1r-25">
          <mxGeometry width="200" height="40" as="geometry">
            <mxRectangle width="200" height="40" as="alternateBounds" />
          </mxGeometry>
        </mxCell>
        <mxCell id="ZwSzckMdMZMdzs2X1B1r-49" style="shape=partialRectangle;html=1;whiteSpace=wrap;connectable=0;strokeColor=inherit;overflow=hidden;fillColor=none;top=0;left=0;bottom=0;right=0;pointerEvents=1;fontSize=16;" vertex="1" parent="ZwSzckMdMZMdzs2X1B1r-25">
          <mxGeometry x="200" width="200" height="40" as="geometry">
            <mxRectangle width="200" height="40" as="alternateBounds" />
          </mxGeometry>
        </mxCell>
        <mxCell id="ZwSzckMdMZMdzs2X1B1r-26" value="" style="shape=partialRectangle;html=1;whiteSpace=wrap;connectable=0;strokeColor=inherit;overflow=hidden;fillColor=none;top=0;left=0;bottom=0;right=0;pointerEvents=1;fontSize=16;" vertex="1" parent="ZwSzckMdMZMdzs2X1B1r-25">
          <mxGeometry x="400" width="200" height="40" as="geometry">
            <mxRectangle width="200" height="40" as="alternateBounds" />
          </mxGeometry>
        </mxCell>
        <mxCell id="ZwSzckMdMZMdzs2X1B1r-27" value="" style="shape=partialRectangle;html=1;whiteSpace=wrap;connectable=0;strokeColor=inherit;overflow=hidden;fillColor=none;top=0;left=0;bottom=0;right=0;pointerEvents=1;fontSize=16;" vertex="1" parent="ZwSzckMdMZMdzs2X1B1r-25">
          <mxGeometry x="600" width="200" height="40" as="geometry">
            <mxRectangle width="200" height="40" as="alternateBounds" />
          </mxGeometry>
        </mxCell>
        <mxCell id="ZwSzckMdMZMdzs2X1B1r-28" value="" style="shape=partialRectangle;html=1;whiteSpace=wrap;connectable=0;strokeColor=inherit;overflow=hidden;fillColor=none;top=0;left=0;bottom=0;right=0;pointerEvents=1;fontSize=16;" vertex="1" parent="ZwSzckMdMZMdzs2X1B1r-25">
          <mxGeometry x="800" width="200" height="40" as="geometry">
            <mxRectangle width="200" height="40" as="alternateBounds" />
          </mxGeometry>
        </mxCell>
        <mxCell id="ZwSzckMdMZMdzs2X1B1r-10" value="" style="shape=tableRow;horizontal=0;startSize=0;swimlaneHead=0;swimlaneBody=0;strokeColor=inherit;top=0;left=0;bottom=0;right=0;collapsible=0;dropTarget=0;fillColor=none;points=[[0,0.5],[1,0.5]];portConstraint=eastwest;fontSize=16;" vertex="1" parent="ZwSzckMdMZMdzs2X1B1r-1">
          <mxGeometry y="357" width="1000" height="43" as="geometry" />
        </mxCell>
        <mxCell id="ZwSzckMdMZMdzs2X1B1r-59" style="shape=partialRectangle;html=1;whiteSpace=wrap;connectable=0;strokeColor=inherit;overflow=hidden;fillColor=none;top=0;left=0;bottom=0;right=0;pointerEvents=1;fontSize=16;" vertex="1" parent="ZwSzckMdMZMdzs2X1B1r-10">
          <mxGeometry width="200" height="43" as="geometry">
            <mxRectangle width="200" height="43" as="alternateBounds" />
          </mxGeometry>
        </mxCell>
        <mxCell id="ZwSzckMdMZMdzs2X1B1r-50" style="shape=partialRectangle;html=1;whiteSpace=wrap;connectable=0;strokeColor=inherit;overflow=hidden;fillColor=none;top=0;left=0;bottom=0;right=0;pointerEvents=1;fontSize=16;" vertex="1" parent="ZwSzckMdMZMdzs2X1B1r-10">
          <mxGeometry x="200" width="200" height="43" as="geometry">
            <mxRectangle width="200" height="43" as="alternateBounds" />
          </mxGeometry>
        </mxCell>
        <mxCell id="ZwSzckMdMZMdzs2X1B1r-11" value="" style="shape=partialRectangle;html=1;whiteSpace=wrap;connectable=0;strokeColor=inherit;overflow=hidden;fillColor=none;top=0;left=0;bottom=0;right=0;pointerEvents=1;fontSize=16;" vertex="1" parent="ZwSzckMdMZMdzs2X1B1r-10">
          <mxGeometry x="400" width="200" height="43" as="geometry">
            <mxRectangle width="200" height="43" as="alternateBounds" />
          </mxGeometry>
        </mxCell>
        <mxCell id="ZwSzckMdMZMdzs2X1B1r-12" value="" style="shape=partialRectangle;html=1;whiteSpace=wrap;connectable=0;strokeColor=inherit;overflow=hidden;fillColor=none;top=0;left=0;bottom=0;right=0;pointerEvents=1;fontSize=16;" vertex="1" parent="ZwSzckMdMZMdzs2X1B1r-10">
          <mxGeometry x="600" width="200" height="43" as="geometry">
            <mxRectangle width="200" height="43" as="alternateBounds" />
          </mxGeometry>
        </mxCell>
        <mxCell id="ZwSzckMdMZMdzs2X1B1r-13" value="" style="shape=partialRectangle;html=1;whiteSpace=wrap;connectable=0;strokeColor=inherit;overflow=hidden;fillColor=none;top=0;left=0;bottom=0;right=0;pointerEvents=1;fontSize=16;" vertex="1" parent="ZwSzckMdMZMdzs2X1B1r-10">
          <mxGeometry x="800" width="200" height="43" as="geometry">
            <mxRectangle width="200" height="43" as="alternateBounds" />
          </mxGeometry>
        </mxCell>
      </root>
    </mxGraphModel>
  </diagram>
  <diagram id="bo3K6h0Faq-3n2XK5MlU" name="Wire Frame">
    <mxGraphModel grid="1" page="1" gridSize="10" guides="1" tooltips="1" connect="1" arrows="1" fold="1" pageScale="1" pageWidth="1169" pageHeight="827" math="0" shadow="0">
      <root>
        <mxCell id="0" />
        <mxCell id="1" parent="0" />
        <mxCell id="9SsdWPQ2_-wbwg_N8Vs1-1" value="" style="rounded=0;whiteSpace=wrap;html=1;" vertex="1" parent="1">
          <mxGeometry x="80" y="40" width="960" height="700" as="geometry" />
        </mxCell>
        <mxCell id="9SsdWPQ2_-wbwg_N8Vs1-2" value="" style="rounded=0;whiteSpace=wrap;html=1;fontSize=23;" vertex="1" parent="1">
          <mxGeometry x="90" y="50" width="940" height="60" as="geometry" />
        </mxCell>
        <mxCell id="9SsdWPQ2_-wbwg_N8Vs1-3" value="" style="endArrow=none;html=1;rounded=0;" edge="1" parent="1">
          <mxGeometry width="50" height="50" relative="1" as="geometry">
            <mxPoint x="90" y="120" as="sourcePoint" />
            <mxPoint x="1040" y="120" as="targetPoint" />
          </mxGeometry>
        </mxCell>
        <mxCell id="9SsdWPQ2_-wbwg_N8Vs1-4" value="Nav Bar" style="rounded=0;whiteSpace=wrap;html=1;fontSize=23;" vertex="1" parent="1">
          <mxGeometry x="90" y="130" width="200" height="520" as="geometry" />
        </mxCell>
        <mxCell id="9SsdWPQ2_-wbwg_N8Vs1-5" value="" style="endArrow=none;html=1;rounded=0;" edge="1" parent="1">
          <mxGeometry width="50" height="50" relative="1" as="geometry">
            <mxPoint x="90" y="658" as="sourcePoint" />
            <mxPoint x="1040" y="658" as="targetPoint" />
          </mxGeometry>
        </mxCell>
        <mxCell id="9SsdWPQ2_-wbwg_N8Vs1-6" value="Footer" style="rounded=0;whiteSpace=wrap;html=1;fontSize=23;" vertex="1" parent="1">
          <mxGeometry x="90" y="670" width="940" height="60" as="geometry" />
        </mxCell>
        <mxCell id="9SsdWPQ2_-wbwg_N8Vs1-7" value="" style="endArrow=none;html=1;rounded=0;" edge="1" parent="1">
          <mxGeometry width="50" height="50" relative="1" as="geometry">
            <mxPoint x="90" y="55" as="sourcePoint" />
            <mxPoint x="1030" y="105" as="targetPoint" />
          </mxGeometry>
        </mxCell>
        <mxCell id="9SsdWPQ2_-wbwg_N8Vs1-8" value="" style="endArrow=none;html=1;rounded=0;" edge="1" parent="1">
          <mxGeometry width="50" height="50" relative="1" as="geometry">
            <mxPoint x="90" y="105" as="sourcePoint" />
            <mxPoint x="1030" y="55" as="targetPoint" />
          </mxGeometry>
        </mxCell>
        <mxCell id="9SsdWPQ2_-wbwg_N8Vs1-9" value="Site Logo" style="text;html=1;strokeColor=none;fillColor=none;align=center;verticalAlign=middle;whiteSpace=wrap;rounded=0;fontSize=24;" vertex="1" parent="1">
          <mxGeometry x="435" y="80" width="230" height="30" as="geometry" />
        </mxCell>
        <mxCell id="9SsdWPQ2_-wbwg_N8Vs1-10" value="" style="rounded=0;whiteSpace=wrap;html=1;" vertex="1" parent="1">
          <mxGeometry x="300" y="130" width="730" height="520" as="geometry" />
        </mxCell>
        <mxCell id="9SsdWPQ2_-wbwg_N8Vs1-11" value="Home" style="text;html=1;strokeColor=none;fillColor=none;align=center;verticalAlign=middle;whiteSpace=wrap;rounded=0;fontSize=24;" vertex="1" parent="1">
          <mxGeometry x="480" y="370" width="230" height="30" as="geometry" />
        </mxCell>
        <mxCell id="9SsdWPQ2_-wbwg_N8Vs1-12" value="" style="whiteSpace=wrap;html=1;aspect=fixed;" vertex="1" parent="1">
          <mxGeometry x="350" y="170" width="80" height="80" as="geometry" />
        </mxCell>
        <mxCell id="9SsdWPQ2_-wbwg_N8Vs1-13" value="" style="endArrow=none;html=1;rounded=0;" edge="1" parent="1">
          <mxGeometry width="50" height="50" relative="1" as="geometry">
            <mxPoint x="350" y="250" as="sourcePoint" />
            <mxPoint x="430" y="170" as="targetPoint" />
          </mxGeometry>
        </mxCell>
        <mxCell id="9SsdWPQ2_-wbwg_N8Vs1-14" value="" style="endArrow=none;html=1;rounded=0;" edge="1" parent="1">
          <mxGeometry width="50" height="50" relative="1" as="geometry">
            <mxPoint x="350" y="170" as="sourcePoint" />
            <mxPoint x="425" y="250" as="targetPoint" />
          </mxGeometry>
        </mxCell>
        <mxCell id="9SsdWPQ2_-wbwg_N8Vs1-15" value="Profile Pic" style="text;html=1;strokeColor=none;fillColor=none;align=center;verticalAlign=middle;whiteSpace=wrap;rounded=0;fontSize=24;" vertex="1" parent="1">
          <mxGeometry x="275" y="260" width="230" height="30" as="geometry" />
        </mxCell>
        <mxCell id="9SsdWPQ2_-wbwg_N8Vs1-16" value="" style="rounded=0;whiteSpace=wrap;html=1;" vertex="1" parent="1">
          <mxGeometry x="470" y="170" width="410" height="90" as="geometry" />
        </mxCell>
        <mxCell id="9SsdWPQ2_-wbwg_N8Vs1-17" value="Welcome Message" style="text;html=1;strokeColor=none;fillColor=none;align=center;verticalAlign=middle;whiteSpace=wrap;rounded=0;fontSize=24;" vertex="1" parent="1">
          <mxGeometry x="550" y="200" width="230" height="30" as="geometry" />
        </mxCell>
      </root>
    </mxGraphModel>
  </diagram>
</mxfile>
